<svg width="34" height="40" viewBox="0 0 34 40" fill="none" xmlns="http://www.w3.org/2000/svg">
<path d="M17.1715 8.67615C17.1395 8.83725 17.0756 8.96704 17.0436 9.12814H17.1402C16.8203 9.77281 16.1483 9.93409 15.5728 10.2565H15.5084C15.4442 11.9332 14.3886 13.0626 12.5657 12.7081C12.3739 12.6758 12.2465 12.5786 12.3421 12.2888C13.8131 12.5465 14.8053 11.9653 15.1891 10.4178C14.9335 10.4822 14.7092 10.5468 14.5812 10.579C14.5812 10.8691 14.6451 11.1275 14.5812 11.3209C14.4851 11.5466 14.2606 11.7722 14.0688 11.9334C13.5252 12.288 13.0134 12.1269 12.4378 11.4823C12.31 11.8046 12.2136 12.0949 12.1177 12.4173C11.9897 12.2566 11.6704 12.5131 11.6062 12.1913C11.5423 11.9014 11.4464 11.5469 11.5419 11.2891C11.9257 10.1926 12.7579 9.67661 13.8774 9.61208C14.4209 9.57986 14.9646 9.61126 15.4762 9.5146C16.1157 9.41785 16.7561 9.3535 17.108 8.61235C17.1123 8.61661 17.142 8.64648 17.1715 8.67615ZM16.3086 9.61208C15.701 9.70883 14.9644 9.80522 14.2288 9.90197C13.8771 9.96641 13.5254 9.99881 13.1737 10.0632C12.4382 10.2244 11.4464 11.2561 11.6698 11.9334C11.8295 11.6433 11.926 11.3209 12.1177 11.0631C12.5975 10.3535 13.3334 10.1598 14.1331 10.1598C14.9328 10.1598 15.669 9.87011 16.3086 9.61208ZM13.5251 10.7085C13.4612 10.7088 13.365 10.8373 13.365 10.9017C13.3655 10.9662 13.4613 11.0633 13.5251 11.1277C13.589 11.0633 13.6849 10.9983 13.7808 10.9017H13.813C13.8075 10.8962 13.6198 10.7087 13.5251 10.7085ZM15.2527 6.38672C15.6044 6.38681 15.9566 6.61226 16.2764 6.74123C16.2765 6.74686 16.279 6.80912 16.34 6.87065C16.0203 6.80621 15.7325 6.70946 15.4449 6.70937C14.2934 6.70937 13.2374 7.09601 12.2777 7.74105C11.926 7.96677 11.5738 8.28961 11.254 8.54764C10.7105 8.99899 10.3266 9.57949 10.1667 10.2565C10.1663 10.353 10.0392 10.4506 9.97532 10.5472C9.94337 10.4185 9.8475 10.2893 9.87873 10.1927C10.0066 9.74123 10.0388 9.25684 10.2945 8.90215C11.478 7.22517 13.1735 6.38672 15.2527 6.38672Z" fill="#E99050"/>
<path d="M12.7826 0.121681C17.9096 -0.605317 21.5064 2.04895 23.0651 4.79332C23.9871 4.44026 25.0362 4.26311 26.2124 4.26311C27.5399 4.26311 28.6824 4.4793 29.6395 4.91093C30.5964 5.32594 31.3761 5.89843 31.9781 6.62881C32.5955 7.35924 33.0503 8.19799 33.3437 9.14428C33.6369 10.0739 33.7838 11.0534 33.7838 12.0826C33.7837 13.3275 33.5754 14.5807 33.1587 15.8423C32.7573 17.0873 32.1706 18.2328 31.3988 19.2787C30.6424 20.3079 29.7166 21.1382 28.6206 21.7691C27.5402 22.3832 26.3283 22.69 24.9854 22.69C24.3835 22.69 23.7734 22.6157 23.1559 22.4663C22.5385 22.3169 21.9672 22.0844 21.4424 21.7691C20.9331 21.4371 20.5163 21.0137 20.1922 20.4991C19.8835 19.9679 19.7295 19.3369 19.7295 18.6064V18.3821C19.7295 18.2992 19.7373 18.1993 19.7527 18.0833C19.7991 17.6352 19.8994 17.0793 20.0537 16.4155C20.2234 15.7515 20.4163 15.0456 20.6324 14.2985C20.8484 13.5516 21.0568 12.8129 21.2574 12.0826C21.4735 11.3522 21.6509 10.6879 21.7898 10.0903C21.9287 9.47603 21.9985 8.98634 21.9985 8.62109C21.9985 8.22281 21.8981 8.02353 21.6976 8.0234C21.4969 8.0234 21.1955 8.23116 20.7941 8.64616C20.3928 9.06123 19.9301 9.75033 19.4054 10.713L19.2662 10.6629C19.2662 9.31828 19.5443 8.17272 20.1 7.2265C20.3769 6.75978 20.7081 6.34749 21.0938 5.98999C20.0082 4.01913 17.2867 1.80776 13.1016 2.40255L12.8554 2.44046C12.0481 2.57471 11.2799 2.71884 10.4073 3.14227C9.54601 3.56019 8.52213 4.2824 7.30245 5.64101C6.44539 6.85889 5.97877 8.15989 5.97685 9.47781C5.97505 10.804 6.44341 12.2501 7.63299 13.7529L8.07769 14.3101C10.2464 16.9978 11.5729 18.2512 12.6447 19.3995C13.8465 20.687 14.6631 21.7861 15.7064 24.2138L15.8063 24.4516C16.8005 26.8953 16.733 28.8732 15.9307 30.4504C15.1824 31.921 13.8889 32.8486 12.7652 33.4645L12.5429 33.5841C9.69898 35.0744 6.1605 34.1557 3.1272 31.0834C3.41799 32.2451 3.77241 33.3305 4.26268 34.2846C4.76759 35.267 5.39326 36.0578 6.19725 36.6258C6.99461 37.1891 8.03216 37.58 9.43806 37.6677C11.8759 37.8196 13.4542 37.3649 14.7559 36.5931C16.0753 35.8106 17.1592 34.6849 18.6082 33.2357L18.605 33.2228C18.6412 33.1914 18.6775 33.1608 18.7133 33.1303C18.7345 33.1091 18.7563 33.0881 18.7777 33.0667C18.8425 33.002 18.9137 32.9476 18.9885 32.9016C21.6754 30.7242 23 31.3724 23.1669 32.9806C23.1669 32.9806 22.2343 32.2359 20.5847 34.539L19.2642 35.8553L19.261 35.8437C18.2213 36.872 17.1656 37.8436 15.9365 38.5726C14.1862 39.6104 12.1346 40.1435 9.29374 39.9665C7.51118 39.8554 6.0495 39.3446 4.862 38.5057C3.68125 37.6715 2.83524 36.5578 2.20697 35.3354C1.28569 33.5426 0.783814 31.4017 0.390981 29.3739L0.0230146 27.4002C-0.130785 26.5744 0.506105 25.8193 1.34086 25.8192L1.43108 25.8224C1.84896 25.8504 2.22064 26.0711 2.44799 26.4015L2.49438 26.4741L2.7934 26.9599C5.90106 31.8445 9.47164 32.5909 11.468 31.5448L11.8476 31.336C12.7162 30.8337 13.4583 30.2196 13.8711 29.4085C14.285 28.5949 14.4637 27.386 13.7402 25.5062L13.5836 25.1213C12.6475 22.9429 11.9786 22.0669 10.9538 20.9689C9.93772 19.8805 8.52305 18.5348 6.27973 15.7555L5.81961 15.1803C4.35167 13.3259 3.66461 11.3867 3.66723 9.47458C3.66997 7.57207 4.35529 5.79768 5.45552 4.25603L5.4916 4.20526L5.53349 4.15899C6.93436 2.58726 8.20604 1.64875 9.39681 1.07092C10.5862 0.493791 11.6329 0.308662 12.4752 0.168596L12.7826 0.121681ZM25.0319 7.27665C25.109 7.59195 25.1627 7.9158 25.1936 8.24775C25.2399 8.57963 25.2632 8.9198 25.2632 9.26827C25.2632 10.0319 25.1939 10.8127 25.055 11.6096C24.9316 12.4063 24.7847 13.1782 24.6149 13.9251C24.4605 14.6722 24.3137 15.3696 24.1747 16.0171C24.0513 16.6644 23.9898 17.237 23.9898 17.735C23.9898 18.2495 24.0901 18.6566 24.2907 18.9554C24.4915 19.2541 24.8545 19.4033 25.3792 19.4033C25.9964 19.4033 26.5519 19.2123 27.0457 18.8307C27.555 18.4324 27.995 17.9093 28.3654 17.2619C28.7359 16.6145 29.0219 15.9007 29.2225 15.1205C29.4232 14.3237 29.5235 13.5266 29.5235 12.7298C29.5235 11.7835 29.3689 10.8952 29.0602 10.0652C28.7668 9.23536 28.2886 8.56305 27.625 8.04847C26.9613 7.5339 26.0968 7.27665 25.0319 7.27665Z" fill="#009490"/>
</svg>
