<svg width="540" height="121" viewBox="0 0 540 121" fill="none" xmlns="http://www.w3.org/2000/svg">
<path d="M68.5429 112.383L72.0508 112.424V112.401V112.379H68.5429V112.383ZM68.5429 116.397L70.113 119.547L70.2027 119.502L70.2924 119.452L68.5429 116.402V116.397ZM100.594 97.9039L102.343 100.955L100.589 97.9039H100.594ZM47.6526 5.89272L49.4065 8.94341H49.411L47.6526 5.89272ZM12.3539 97.9039L10.5999 100.955L10.6268 100.968L10.6538 100.982L12.3539 97.9039ZM45.5936 116.397L43.8935 119.475C44.9791 120.078 46.3069 120.064 47.3745 119.43C48.4466 118.795 49.1015 117.643 49.1015 116.397H45.5936ZM65.035 104.406V112.383H72.0553V104.406H65.035ZM68.5429 112.383L65.035 112.343C65.035 112.343 65.035 112.352 65.035 112.356C65.035 112.365 65.035 112.374 65.035 112.392C65.035 112.424 65.035 112.464 65.035 112.523C65.035 112.635 65.035 112.793 65.0306 112.982C65.0306 113.364 65.0216 113.873 65.0171 114.381C65.0171 114.885 65.0171 115.407 65.0171 115.803C65.0171 115.997 65.0171 116.186 65.0261 116.339C65.0261 116.406 65.0306 116.519 65.0395 116.636C65.0395 116.672 65.053 116.834 65.0889 117.031C65.0978 117.081 65.1562 117.414 65.3221 117.801C65.3849 117.94 65.6361 118.534 66.2417 119.061C66.5871 119.362 67.1523 119.731 67.9329 119.871C68.7583 120.015 69.5164 119.848 70.1085 119.551L66.9684 113.256C67.5605 112.959 68.3186 112.793 69.144 112.937C69.929 113.076 70.4898 113.445 70.8352 113.747C71.1716 114.039 71.3824 114.336 71.4991 114.521C71.6202 114.714 71.7054 114.885 71.7548 115.002C71.8535 115.227 71.9073 115.416 71.9297 115.506C71.9566 115.61 71.9746 115.7 71.9835 115.754C72.0194 115.938 72.0284 116.078 72.0284 116.087C72.0329 116.15 72.0329 116.177 72.0284 116.136C72.0284 116.073 72.0284 115.952 72.0239 115.767C72.0239 115.412 72.0239 114.93 72.0239 114.426C72.0239 113.931 72.0329 113.432 72.0329 113.054C72.0329 112.865 72.0329 112.712 72.0374 112.599C72.0374 112.545 72.0374 112.5 72.0374 112.473C72.0374 112.46 72.0374 112.446 72.0374 112.442C72.0374 112.442 72.0374 112.437 72.0374 112.433C72.0374 112.433 72.0374 112.433 68.5295 112.388L68.5429 112.383ZM70.2924 119.448L102.343 100.955L98.8445 94.8532L66.7935 113.346L70.2924 119.448ZM102.348 100.955C108.906 97.157 112.948 90.1557 112.948 82.5605H105.928C105.928 87.636 103.232 92.32 98.84 94.8577L102.348 100.955ZM112.948 82.556V41.6776H105.928V82.556H112.948ZM112.948 41.6776C112.948 34.0824 108.906 27.0766 102.348 23.2835L98.84 29.3803C103.232 31.9226 105.928 36.6021 105.928 41.6776H112.948ZM102.348 23.2835L67.0716 2.84652L63.5637 8.94341L98.84 29.3803L102.348 23.2835ZM67.0716 2.84652C60.5134 -0.946592 52.4389 -0.951091 45.8942 2.84652L49.411 8.93891C53.7712 6.40567 59.1676 6.40117 63.5592 8.93891L67.0671 2.84203L67.0716 2.84652ZM45.8986 2.84652L10.5999 23.2835L14.1078 29.3803L49.4065 8.94341L45.8986 2.84652ZM10.5999 23.2835C4.0417 27.0811 0 34.0824 0 41.6776H7.02027C7.02027 36.6021 9.71623 31.9181 14.1078 29.3803L10.5999 23.2835ZM0 41.6776V82.556H7.02027V41.6776H0ZM0 82.556C0 90.1512 4.0417 97.157 10.5999 100.95L14.1078 94.8532C9.71623 92.311 7.02027 87.6314 7.02027 82.556H0ZM10.6493 100.982L43.8935 119.475L47.2982 113.319L14.054 94.8262L10.6493 100.982ZM49.106 116.397V112.383H42.0857V116.397H49.106ZM49.106 112.383V104.406H42.0857V112.383H49.106Z" fill="#27272E"/>
<path fill-rule="evenodd" clip-rule="evenodd" d="M80.2419 67.7208C81.5024 68.3553 82.9244 68.7107 84.4271 68.7107C85.414 68.7107 86.365 68.5577 87.2577 68.2743V91.5459L86.2304 92.5763L72.0508 106.799V110.035H65.0305V103.884L66.0578 102.853L80.2374 88.6302V67.7208H80.2419Z" fill="#27272E"/>
<path d="M92.8739 58.1773C92.8739 53.6418 89.209 49.9657 84.6873 49.9657C80.1656 49.9657 76.5007 53.6418 76.5007 58.1773C76.5007 62.7129 80.1656 66.389 84.6873 66.389C89.209 66.389 92.8739 62.7129 92.8739 58.1773Z" fill="#E4C535"/>
<path fill-rule="evenodd" clip-rule="evenodd" d="M52.9637 29.4972C53.982 29.8796 55.0855 30.0866 56.2384 30.0866C57.5706 30.0866 58.8356 29.8076 59.9795 29.3037V59.5361H52.9592V29.4972H52.9637ZM52.9637 59.5361H59.984V66.5779L52.9637 59.5361Z" fill="#27272E"/>
<path d="M64.3353 19.3597C64.3353 14.8242 60.6704 11.1481 56.1487 11.1481C51.627 11.1481 47.9621 14.8242 47.9621 19.3597C47.9621 23.8953 51.627 27.5714 56.1487 27.5714C60.6704 27.5714 64.3353 23.8953 64.3353 19.3597Z" fill="#5CB04D"/>
<path fill-rule="evenodd" clip-rule="evenodd" d="M40.4933 48.1434C40.8387 48.1838 41.1931 48.2018 41.5475 48.2018C43.8217 48.2018 45.9121 47.3874 47.5315 46.0331L47.361 62.3169L59.7329 75.5771L60.6794 76.594V117.333C60.6794 119.277 59.1093 120.852 57.1715 120.852C55.2336 120.852 53.6636 119.277 53.6636 117.333V79.3747L41.2738 66.101L40.3139 65.0706L40.3273 63.6578L40.4888 48.1479L40.4933 48.1434Z" fill="#27272E"/>
<path d="M49.0118 37.8933C49.0118 33.3578 45.3469 29.6817 40.8252 29.6817C36.3035 29.6817 32.6386 33.3578 32.6386 37.8933C32.6386 42.4289 36.3035 46.105 40.8252 46.105C45.3469 46.105 49.0118 42.4289 49.0118 37.8933Z" fill="#43658C"/>
<path fill-rule="evenodd" clip-rule="evenodd" d="M66.789 47.5585C68.4712 49.1783 70.7544 50.1727 73.271 50.1727C73.4504 50.1727 73.6298 50.1682 73.8093 50.1592V85.5211L72.8628 86.538L59.5041 100.851L54.3813 96.0411L66.7935 82.7404V47.5585H66.789Z" fill="#27272E"/>
<path d="M81.646 39.6078C81.646 35.0722 77.9811 31.3961 73.4594 31.3961C68.9377 31.3961 65.2728 35.0722 65.2728 39.6078C65.2728 44.1433 68.9377 47.8195 73.4594 47.8195C77.9811 47.8195 81.646 44.1433 81.646 39.6078Z" fill="#DB3C2D"/>
<path fill-rule="evenodd" clip-rule="evenodd" d="M28.5162 72.9989C29.0096 73.0799 29.521 73.1203 30.0369 73.1203C32.0914 73.1203 33.9933 72.4544 35.5365 71.3295V78.0788L48.146 91.447L49.106 92.4639V104.685H42.0857V95.2671L29.4761 81.899L28.5162 80.8821V72.9989Z" fill="#27272E"/>
<path d="M37.7569 62.6499C37.7569 58.1143 34.092 54.4382 29.5704 54.4382C25.0487 54.4382 21.3838 58.1143 21.3838 62.6499C21.3838 67.1854 25.0487 70.8615 29.5704 70.8615C34.092 70.8615 37.7569 67.1854 37.7569 62.6499Z" fill="#CCCCCC"/>
<path d="M149.88 94.2142C146.762 94.2142 143.923 93.5887 141.366 92.3379C138.809 91.087 136.75 89.3952 135.189 87.2714C133.628 85.1431 132.847 82.7358 132.847 80.0451C132.847 75.7255 134.592 72.2879 138.087 69.7187C141.581 67.1539 146.134 65.4621 151.751 64.6522L165.692 62.6814V59.9591C165.692 56.9534 164.818 54.6092 163.073 52.9174C161.391 51.23 158.614 50.3841 154.743 50.3841C151.934 50.3841 149.66 50.9466 147.911 52.0714C146.229 53.1963 145.04 54.6362 144.353 56.391C143.981 57.3314 143.326 57.7994 142.389 57.7994H138.177C137.49 57.7994 136.961 57.6104 136.584 57.2369C136.27 56.8005 136.118 56.2965 136.118 55.7341C136.118 54.7937 136.463 53.6373 137.145 52.2604C137.894 50.8836 139.015 49.5382 140.514 48.2243C142.012 46.9105 143.914 45.8171 146.22 44.9397C148.588 43.9993 151.459 43.5313 154.828 43.5313C158.569 43.5313 161.722 44.0308 164.279 45.0342C166.836 45.9746 168.832 47.2569 170.268 48.8813C171.766 50.5101 172.825 52.3549 173.448 54.4202C174.135 56.4855 174.476 58.5823 174.476 60.7106V91.123C174.476 91.7484 174.256 92.2794 173.821 92.7203C173.448 93.0938 172.946 93.2828 172.322 93.2828H168.016C167.33 93.2828 166.8 93.0938 166.424 92.7203C166.051 92.2839 165.863 91.7484 165.863 91.123V87.0869C165.051 88.2118 163.961 89.3412 162.588 90.4661C161.216 91.5279 159.502 92.4369 157.443 93.1883C155.384 93.8767 152.859 94.2187 149.862 94.2187L149.88 94.2142ZM151.845 87.1724C154.402 87.1724 156.743 86.6414 158.865 85.5751C160.987 84.4502 162.638 82.7268 163.826 80.4141C165.073 78.0968 165.697 75.1901 165.697 71.685V69.0572L154.841 70.6546C150.414 71.28 147.076 72.3419 144.829 73.8447C142.582 75.2846 141.46 77.1294 141.46 79.3837C141.46 81.134 141.958 82.6053 142.958 83.7932C144.017 84.9181 145.327 85.764 146.888 86.3265C148.512 86.8889 150.163 87.1724 151.849 87.1724H151.845ZM190.095 93.2738C189.472 93.2738 188.942 93.0848 188.503 92.7113C188.13 92.2749 187.942 91.7394 187.942 91.114V46.6225C187.942 45.9971 188.13 45.4976 188.503 45.1196C188.938 44.6832 189.472 44.4627 190.095 44.4627H194.307C194.931 44.4627 195.429 44.6832 195.806 45.1196C196.241 45.4931 196.46 45.9971 196.46 46.6225V49.9072C197.896 47.9679 199.704 46.4335 201.888 45.3086C204.073 44.1207 206.693 43.5268 209.747 43.5268C216.799 43.4638 221.787 46.3435 224.721 52.1614C226.156 49.5337 228.247 47.4369 230.992 45.8711C233.737 44.3052 236.855 43.5223 240.35 43.5223C243.593 43.5223 246.526 44.2737 249.146 45.7766C251.829 47.2794 253.919 49.5607 255.417 52.6294C256.978 55.6351 257.759 59.4192 257.759 63.9862V91.114C257.759 91.7394 257.539 92.2704 257.104 92.7113C256.732 93.0848 256.229 93.2738 255.606 93.2738H251.21C250.586 93.2738 250.057 93.0848 249.617 92.7113C249.245 92.2749 249.056 91.7394 249.056 91.114V64.8321C249.056 61.327 248.559 58.5733 247.558 56.571C246.562 54.5687 245.217 53.1603 243.534 52.3459C241.852 51.5315 240.013 51.1265 238.012 51.1265C236.393 51.1265 234.738 51.5315 233.051 52.3459C231.369 53.1603 229.965 54.5687 228.839 56.571C227.78 58.5733 227.246 61.327 227.246 64.8321V91.114C227.246 91.7394 227.027 92.2704 226.592 92.7113C226.219 93.0848 225.717 93.2738 225.093 93.2738H220.697C220.074 93.2738 219.544 93.0848 219.105 92.7113C218.732 92.2749 218.544 91.7394 218.544 91.114V64.8321C218.544 61.327 218.015 58.5733 216.952 56.571C215.893 54.5687 214.52 53.1603 212.834 52.3459C211.151 51.5315 209.371 51.1265 207.5 51.1265C205.876 51.1265 204.225 51.5315 202.539 52.3459C200.857 53.1603 199.453 54.5687 198.327 56.571C197.268 58.5733 196.734 61.2955 196.734 64.7377V91.114C196.734 91.7394 196.514 92.2704 196.079 92.7113C195.707 93.0848 195.204 93.2738 194.581 93.2738H190.091H190.095ZM291.03 94.2142C286.289 94.2142 282.328 93.3053 279.147 91.492C275.967 89.6786 273.531 87.1724 271.849 83.9822C270.167 80.729 269.229 77.0349 269.041 72.9043C268.978 71.8424 268.946 70.4971 268.946 68.8682C268.946 67.2394 268.978 65.8355 269.041 64.8321C269.229 60.6386 270.162 56.9489 271.849 53.7543C273.598 50.5641 276.061 48.0578 279.241 46.2445C282.422 44.4312 286.351 43.5223 291.03 43.5223C295.709 43.5223 299.638 44.4312 302.819 46.2445C305.999 48.0578 308.435 50.5641 310.117 53.7543C311.867 56.9444 312.831 60.6386 313.019 64.8321C313.082 65.8355 313.114 67.1809 313.114 68.8682C313.114 70.5556 313.082 71.8424 313.019 72.9043C312.831 77.0349 311.898 80.7245 310.211 83.9822C308.529 87.1724 306.093 89.6786 302.913 91.492C299.732 93.3053 295.772 94.2142 291.03 94.2142ZM291.03 86.9879C294.901 86.9879 297.988 85.7685 300.293 83.3253C302.603 80.8235 303.85 77.1924 304.034 72.4364C304.097 71.496 304.129 70.3081 304.129 68.8682C304.129 67.4284 304.097 66.2405 304.034 65.3001C303.846 60.5441 302.599 56.9444 300.293 54.5057C297.988 52.0039 294.897 50.7531 291.03 50.7531C287.163 50.7531 284.046 52.0039 281.673 54.5057C279.367 56.9444 278.151 60.5441 278.021 65.3001C277.958 66.2405 277.927 67.4284 277.927 68.8682C277.927 70.3081 277.958 71.496 278.021 72.4364C278.147 77.1924 279.362 80.8235 281.673 83.3253C284.046 85.764 287.163 86.9879 291.03 86.9879ZM326.988 93.2738C326.365 93.2738 325.835 93.0848 325.396 92.7113C325.023 92.2749 324.835 91.7394 324.835 91.114V46.717C324.835 46.0915 325.023 45.5606 325.396 45.1196C325.835 44.6832 326.36 44.4627 326.988 44.4627H331.295C331.918 44.4627 332.447 44.6832 332.887 45.1196C333.327 45.5561 333.542 46.0915 333.542 46.717V50.8476C334.789 48.7193 336.507 47.1264 338.687 46.06C340.872 44.9982 343.491 44.4627 346.546 44.4627H350.287C350.911 44.4627 351.409 44.6832 351.786 45.1196C352.158 45.4931 352.346 45.9971 352.346 46.6225V50.4696C352.346 51.095 352.158 51.5945 351.786 51.9725C351.413 52.3459 350.911 52.5349 350.287 52.5349H344.671C341.302 52.5349 338.651 53.5383 336.718 55.5406C334.784 57.4799 333.816 60.1391 333.816 63.5183V91.114C333.816 91.7394 333.596 92.2704 333.161 92.7113C332.721 93.0848 332.196 93.2738 331.568 93.2738H326.984H326.988ZM379.378 93.2738C375.883 93.2738 373.048 92.6168 370.864 91.303C368.679 89.9261 367.091 88.0183 366.091 85.5795C365.095 83.0778 364.593 80.1351 364.593 76.7559V51.9769H357.294C356.671 51.9769 356.141 51.788 355.702 51.4145C355.329 50.978 355.141 50.4426 355.141 49.8172V46.627C355.141 46.0016 355.329 45.5021 355.702 45.1241C356.141 44.6877 356.671 44.4672 357.294 44.4672H364.593V28.7908C364.593 28.1654 364.781 27.6659 365.153 27.2879C365.593 26.8515 366.122 26.631 366.746 26.631H371.142C371.765 26.631 372.263 26.8515 372.64 27.2879C373.08 27.6614 373.295 28.1654 373.295 28.7908V44.4672H384.9C385.523 44.4672 386.021 44.6877 386.398 45.1241C386.838 45.4976 387.053 46.0016 387.053 46.627V49.8172C387.053 50.4426 386.833 50.9736 386.398 51.4145C386.026 51.788 385.523 51.9769 384.9 51.9769H373.295V76.099C373.295 79.0417 373.797 81.3545 374.793 83.0463C375.794 84.7336 377.57 85.5795 380.127 85.5795H385.837C386.461 85.5795 386.959 85.8 387.336 86.2365C387.775 86.6099 387.991 87.1139 387.991 87.7393V91.1185C387.991 91.7439 387.771 92.2749 387.336 92.7158C386.963 93.0893 386.461 93.2783 385.837 93.2783H379.382L379.378 93.2738ZM399.088 93.2738C398.465 93.2738 397.936 93.0848 397.496 92.7113C397.124 92.2749 396.935 91.7394 396.935 91.114V46.717C396.935 46.0915 397.124 45.5606 397.496 45.1196C397.936 44.6832 398.465 44.4627 399.088 44.4627H403.395C404.018 44.4627 404.552 44.6832 404.987 45.1196C405.427 45.5561 405.642 46.0915 405.642 46.717V50.8476C406.889 48.7193 408.607 47.1264 410.787 46.06C412.972 44.9982 415.592 44.4627 418.646 44.4627H422.388C423.011 44.4627 423.509 44.6832 423.886 45.1196C424.258 45.4931 424.447 45.9971 424.447 46.6225V50.4696C424.447 51.095 424.258 51.5945 423.886 51.9725C423.513 52.3504 423.011 52.5349 422.388 52.5349H416.771C413.403 52.5349 410.751 53.5383 408.818 55.5406C406.885 57.4799 405.916 60.1391 405.916 63.5183V91.114C405.916 91.7394 405.7 92.2704 405.261 92.7113C404.826 93.0848 404.296 93.2738 403.668 93.2738H399.084H399.088ZM450.94 94.2142C444.512 94.2142 439.398 92.2434 435.594 88.3018C431.785 84.2972 429.699 78.8527 429.323 71.9684C429.26 71.154 429.228 70.1236 429.228 68.8727C429.228 67.5589 429.26 66.497 429.323 65.6826C429.574 61.2415 430.601 57.3584 432.409 54.0422C434.217 50.6631 436.684 48.0668 439.801 46.2535C442.982 44.4402 446.696 43.5313 450.935 43.5313C455.677 43.5313 459.638 44.5347 462.818 46.537C466.061 48.5393 468.524 51.3875 470.211 55.0771C471.893 58.7713 472.736 63.0863 472.736 68.0313V69.6287C472.736 70.3171 472.516 70.848 472.081 71.226C471.709 71.5995 471.206 71.7884 470.583 71.7884H438.204V72.6344C438.33 75.1991 438.891 77.6109 439.887 79.8606C440.887 82.0519 442.318 83.8337 444.193 85.2106C446.064 86.5875 448.311 87.2759 450.931 87.2759C453.178 87.2759 455.049 86.9294 456.547 86.2455C458.045 85.5571 459.261 84.8056 460.198 83.9912C461.136 83.1138 461.759 82.4569 462.069 82.0204C462.63 81.206 463.069 80.738 463.379 80.6121C463.688 80.4231 464.191 80.3286 464.877 80.3286H469.367C469.991 80.3286 470.489 80.5176 470.866 80.891C471.305 81.206 471.489 81.6739 471.426 82.2994C471.363 83.2398 470.866 84.3962 469.928 85.773C468.991 87.0869 467.654 88.4008 465.904 89.7146C464.155 91.0285 462.038 92.1219 459.539 92.9993C457.045 93.8137 454.174 94.2187 450.931 94.2187L450.94 94.2142ZM438.213 65.3046H463.854V65.0211C463.854 62.2044 463.325 59.7027 462.262 57.5114C461.261 55.3201 459.799 53.6013 457.866 52.3504C455.932 51.0365 453.622 50.3796 450.94 50.3796C448.257 50.3796 445.951 51.0365 444.014 52.3504C442.143 53.6013 440.708 55.3246 439.707 57.5114C438.707 59.7027 438.209 62.2044 438.209 65.0211V65.3046H438.213ZM503.302 94.2142C496.874 94.2142 491.76 92.2434 487.956 88.3018C484.148 84.2972 482.062 78.8527 481.685 71.9684C481.623 71.154 481.591 70.1236 481.591 68.8727C481.591 67.5589 481.623 66.497 481.685 65.6826C481.932 61.2415 482.964 57.3584 484.772 54.0422C486.579 50.6631 489.042 48.0668 492.164 46.2535C495.345 44.4402 499.054 43.5313 503.298 43.5313C508.039 43.5313 512 44.5347 515.181 46.537C518.424 48.5393 520.891 51.3875 522.573 55.0771C524.256 58.7713 525.099 63.0863 525.099 68.0313V69.6287C525.099 70.3171 524.879 70.848 524.444 71.226C524.072 71.5995 523.569 71.7884 522.946 71.7884H490.567V72.6344C490.693 75.1991 491.253 77.6109 492.249 79.8606C493.245 82.0519 494.681 83.8337 496.556 85.2106C498.426 86.5875 500.674 87.2759 503.293 87.2759C505.541 87.2759 507.411 86.9294 508.91 86.2455C510.408 85.5571 511.623 84.8056 512.561 83.9912C513.499 83.1138 514.118 82.4569 514.432 82.0204C514.992 81.206 515.427 80.738 515.741 80.6121C516.051 80.4231 516.549 80.3286 517.24 80.3286H521.73C522.354 80.3286 522.851 80.5176 523.228 80.891C523.663 81.206 523.852 81.6739 523.789 82.2994C523.726 83.2398 523.228 84.3962 522.291 85.773C521.353 87.0869 520.012 88.4008 518.267 89.7146C516.517 91.0285 514.396 92.1219 511.902 92.9993C509.408 93.8137 506.537 94.2187 503.293 94.2187L503.302 94.2142ZM490.576 65.3046H516.217V65.0211C516.217 62.2044 515.688 59.7027 514.624 57.5114C513.624 55.3201 512.157 53.6013 510.228 52.3504C508.295 51.0365 505.985 50.3796 503.302 50.3796C500.62 50.3796 498.31 51.0365 496.376 52.3504C494.506 53.6013 493.07 55.3246 492.07 57.5114C491.07 59.7027 490.572 62.2044 490.572 65.0211V65.3046H490.576Z" fill="#27272E"/>
</svg>
