<svg width="546" height="121" viewBox="0 0 546 121" fill="none" xmlns="http://www.w3.org/2000/svg">
<path d="M68.5429 112.383L72.0508 112.424V112.401V112.379H68.5429V112.383ZM68.5429 116.397L70.113 119.547L70.2027 119.502L70.2924 119.452L68.5429 116.402V116.397ZM100.594 97.9039L102.343 100.955L100.589 97.9039H100.594ZM47.6526 5.89272L49.4065 8.94341H49.411L47.6526 5.89272ZM12.3539 97.9039L10.5999 100.955L10.6268 100.968L10.6538 100.982L12.3539 97.9039ZM45.5936 116.397L43.8935 119.475C44.9791 120.078 46.3069 120.064 47.3745 119.43C48.4466 118.795 49.1015 117.643 49.1015 116.397H45.5936ZM65.035 104.406V112.383H72.0553V104.406H65.035ZM68.5429 112.383L65.035 112.343C65.035 112.343 65.035 112.352 65.035 112.356C65.035 112.365 65.035 112.374 65.035 112.392C65.035 112.424 65.035 112.464 65.035 112.523C65.035 112.635 65.035 112.793 65.0306 112.982C65.0306 113.364 65.0216 113.873 65.0171 114.381C65.0171 114.885 65.0171 115.407 65.0171 115.803C65.0171 115.997 65.0171 116.186 65.0261 116.339C65.0261 116.406 65.0306 116.519 65.0395 116.636C65.0395 116.672 65.053 116.834 65.0889 117.031C65.0978 117.081 65.1562 117.414 65.3221 117.801C65.3849 117.94 65.6361 118.534 66.2417 119.061C66.5871 119.362 67.1523 119.731 67.9329 119.871C68.7583 120.015 69.5163 119.848 70.1085 119.551L66.9684 113.256C67.5605 112.959 68.3186 112.793 69.144 112.937C69.929 113.076 70.4898 113.445 70.8352 113.747C71.1716 114.039 71.3824 114.336 71.4991 114.521C71.6202 114.714 71.7054 114.885 71.7548 115.002C71.8535 115.227 71.9073 115.416 71.9297 115.506C71.9566 115.61 71.9746 115.7 71.9835 115.754C72.0194 115.938 72.0284 116.078 72.0284 116.087C72.0329 116.15 72.0329 116.177 72.0284 116.136C72.0284 116.073 72.0284 115.952 72.0239 115.767C72.0239 115.412 72.0239 114.93 72.0239 114.426C72.0239 113.931 72.0329 113.432 72.0329 113.054C72.0329 112.865 72.0329 112.712 72.0374 112.599C72.0374 112.545 72.0374 112.5 72.0374 112.473C72.0374 112.46 72.0374 112.446 72.0374 112.442C72.0374 112.442 72.0374 112.437 72.0374 112.433C72.0374 112.433 72.0374 112.433 68.5295 112.388L68.5429 112.383ZM70.2924 119.448L102.343 100.955L98.8445 94.8532L66.7935 113.346L70.2924 119.448ZM102.348 100.955C108.906 97.157 112.948 90.1557 112.948 82.5605H105.928C105.928 87.636 103.232 92.32 98.84 94.8577L102.348 100.955ZM112.948 82.556V41.6776H105.928V82.556H112.948ZM112.948 41.6776C112.948 34.0824 108.906 27.0766 102.348 23.2835L98.84 29.3803C103.232 31.9226 105.928 36.6021 105.928 41.6776H112.948ZM102.348 23.2835L67.0716 2.84652L63.5637 8.94341L98.84 29.3803L102.348 23.2835ZM67.0716 2.84652C60.5134 -0.946592 52.4389 -0.951091 45.8942 2.84652L49.411 8.93891C53.7712 6.40567 59.1676 6.40117 63.5592 8.93891L67.0671 2.84203L67.0716 2.84652ZM45.8986 2.84652L10.5999 23.2835L14.1078 29.3803L49.4065 8.94341L45.8986 2.84652ZM10.5999 23.2835C4.0417 27.0811 0 34.0824 0 41.6776H7.02027C7.02027 36.6021 9.71623 31.9181 14.1078 29.3803L10.5999 23.2835ZM0 41.6776V82.556H7.02027V41.6776H0ZM0 82.556C0 90.1512 4.0417 97.157 10.5999 100.95L14.1078 94.8532C9.71623 92.311 7.02027 87.6314 7.02027 82.556H0ZM10.6493 100.982L43.8935 119.475L47.2982 113.319L14.054 94.8262L10.6493 100.982ZM49.106 116.397V112.383H42.0857V116.397H49.106ZM49.106 112.383V104.406H42.0857V112.383H49.106Z" fill="#F3F6F9"/>
<path fill-rule="evenodd" clip-rule="evenodd" d="M80.2419 67.7207C81.5024 68.3551 82.9244 68.7106 84.4271 68.7106C85.414 68.7106 86.365 68.5576 87.2577 68.2742V91.5458L86.2304 92.5762L72.0508 106.799V110.034H65.0305V103.884L66.0578 102.853L80.2374 88.6301V67.7207H80.2419Z" fill="#F3F6F9"/>
<path d="M92.8739 58.1775C92.8739 53.6419 89.209 49.9658 84.6873 49.9658C80.1656 49.9658 76.5007 53.6419 76.5007 58.1775C76.5007 62.713 80.1656 66.3892 84.6873 66.3892C89.209 66.3892 92.8739 62.713 92.8739 58.1775Z" fill="#E4C535"/>
<path fill-rule="evenodd" clip-rule="evenodd" d="M52.9637 29.4972C53.982 29.8797 55.0855 30.0866 56.2384 30.0866C57.5706 30.0866 58.8356 29.8077 59.9795 29.3037V59.5362H52.9592V29.4972H52.9637ZM52.9637 59.5362H59.984V66.5779L52.9637 59.5362Z" fill="#F3F6F9"/>
<path d="M64.3353 19.3596C64.3353 14.8241 60.6704 11.1479 56.1487 11.1479C51.627 11.1479 47.9621 14.8241 47.9621 19.3596C47.9621 23.8952 51.627 27.5713 56.1487 27.5713C60.6704 27.5713 64.3353 23.8952 64.3353 19.3596Z" fill="#5CB04D"/>
<path fill-rule="evenodd" clip-rule="evenodd" d="M40.4933 48.1435C40.8387 48.184 41.1931 48.202 41.5475 48.202C43.8217 48.202 45.9121 47.3876 47.5315 46.0332L47.361 62.3171L59.7329 75.5772L60.6794 76.5941V117.333C60.6794 119.277 59.1093 120.852 57.1715 120.852C55.2336 120.852 53.6636 119.277 53.6636 117.333V79.3748L41.2738 66.1012L40.3139 65.0708L40.3273 63.6579L40.4888 48.148L40.4933 48.1435Z" fill="#F3F6F9"/>
<path d="M49.0118 37.8933C49.0118 33.3578 45.3469 29.6816 40.8252 29.6816C36.3035 29.6816 32.6386 33.3578 32.6386 37.8933C32.6386 42.4289 36.3035 46.105 40.8252 46.105C45.3469 46.105 49.0118 42.4289 49.0118 37.8933Z" fill="#43658C"/>
<path fill-rule="evenodd" clip-rule="evenodd" d="M66.789 47.5586C68.4712 49.1784 70.7544 50.1728 73.271 50.1728C73.4504 50.1728 73.6298 50.1683 73.8093 50.1593V85.5213L72.8628 86.5382L59.5041 100.851L54.3813 96.0412L66.7935 82.7405V47.5586H66.789Z" fill="#F3F6F9"/>
<path d="M81.646 39.6077C81.646 35.0721 77.9811 31.396 73.4594 31.396C68.9377 31.396 65.2728 35.0721 65.2728 39.6077C65.2728 44.1432 68.9377 47.8193 73.4594 47.8193C77.9811 47.8193 81.646 44.1432 81.646 39.6077Z" fill="#DB3C2D"/>
<path fill-rule="evenodd" clip-rule="evenodd" d="M28.5162 72.9989C29.0096 73.0799 29.521 73.1204 30.0369 73.1204C32.0914 73.1204 33.9933 72.4545 35.5365 71.3296V78.0789L48.146 91.4471L49.106 92.464V104.685H42.0857V95.2672L29.4761 81.899L28.5162 80.8821V72.9989Z" fill="#F3F6F9"/>
<path d="M37.7569 62.6497C37.7569 58.1141 34.092 54.438 29.5704 54.438C25.0487 54.438 21.3838 58.1141 21.3838 62.6497C21.3838 67.1852 25.0487 70.8613 29.5704 70.8613C34.092 70.8613 37.7569 67.1852 37.7569 62.6497Z" fill="#CCCCCC"/>
<path d="M169.98 94.214C166.863 94.214 164.023 93.5886 161.466 92.3377C158.909 91.0868 156.85 89.395 155.289 87.2712C153.728 85.1429 152.948 82.7357 152.948 80.045C152.948 75.7254 154.693 72.2877 158.187 69.7185C161.682 67.1538 166.235 65.4619 171.851 64.652L185.793 62.6812V59.959C185.793 56.9533 184.918 54.609 183.173 52.9172C181.491 51.2299 178.714 50.384 174.843 50.384C172.035 50.384 169.761 50.9464 168.011 52.0713C166.329 53.1962 165.14 54.636 164.454 56.3909C164.082 57.3313 163.427 57.7992 162.489 57.7992H158.277C157.591 57.7992 157.061 57.6102 156.684 57.2368C156.37 56.8003 156.218 56.2964 156.218 55.7339C156.218 54.7935 156.563 53.6371 157.245 52.2603C157.994 50.8834 159.116 49.538 160.614 48.2242C162.112 46.9103 164.014 45.8169 166.32 44.9395C168.688 43.9991 171.559 43.5312 174.928 43.5312C178.669 43.5312 181.823 44.0306 184.38 45.034C186.937 45.9744 188.933 47.2568 190.368 48.8811C191.867 50.5099 192.925 52.3548 193.549 54.42C194.235 56.4853 194.576 58.5821 194.576 60.7104V91.1228C194.576 91.7483 194.356 92.2792 193.921 92.7202C193.549 93.0936 193.046 93.2826 192.423 93.2826H188.116C187.43 93.2826 186.901 93.0936 186.524 92.7202C186.152 92.2837 185.963 91.7483 185.963 91.1228V87.0867C185.151 88.2116 184.061 89.341 182.689 90.4659C181.316 91.5278 179.602 92.4367 177.543 93.1881C175.484 93.8766 172.959 94.2185 169.962 94.2185L169.98 94.214ZM171.945 87.1722C174.502 87.1722 176.844 86.6413 178.965 85.5749C181.087 84.45 182.738 82.7267 183.927 80.4139C185.174 78.0967 185.797 75.19 185.797 71.6848V69.0571L174.942 70.6544C170.514 71.2798 167.177 72.3417 164.929 73.8446C162.682 75.2844 161.561 77.1292 161.561 79.3835C161.561 81.1338 162.058 82.6052 163.059 83.7931C164.117 84.918 165.427 85.7639 166.988 86.3263C168.612 86.8888 170.263 87.1722 171.95 87.1722H171.945ZM210.196 93.2736C209.572 93.2736 209.043 93.0846 208.603 92.7112C208.231 92.2747 208.042 91.7393 208.042 91.1138V46.6223C208.042 45.9969 208.231 45.4975 208.603 45.1195C209.038 44.683 209.572 44.4626 210.196 44.4626H214.408C215.031 44.4626 215.529 44.683 215.906 45.1195C216.341 45.493 216.561 45.9969 216.561 46.6223V49.907C217.996 47.9677 219.804 46.4334 221.989 45.3085C224.173 44.1206 226.793 43.5267 229.848 43.5267C236.899 43.4637 241.888 46.3434 244.821 52.1613C246.257 49.5335 248.347 47.4368 251.093 45.8709C253.838 44.3051 256.955 43.5222 260.45 43.5222C263.693 43.5222 266.627 44.2736 269.247 45.7764C271.929 47.2793 274.019 49.5605 275.518 52.6292C277.079 55.6349 277.859 59.419 277.859 63.9861V91.1138C277.859 91.7393 277.639 92.2702 277.204 92.7112C276.832 93.0846 276.33 93.2736 275.706 93.2736H271.31C270.686 93.2736 270.157 93.0846 269.718 92.7112C269.345 92.2747 269.157 91.7393 269.157 91.1138V64.832C269.157 61.3268 268.659 58.5731 267.659 56.5708C266.663 54.5685 265.317 53.1602 263.635 52.3458C261.953 51.5313 260.113 51.1264 258.113 51.1264C256.493 51.1264 254.838 51.5313 253.152 52.3458C251.469 53.1602 250.065 54.5685 248.939 56.5708C247.881 58.5731 247.347 61.3268 247.347 64.832V91.1138C247.347 91.7393 247.127 92.2702 246.692 92.7112C246.32 93.0846 245.817 93.2736 245.194 93.2736H240.798C240.174 93.2736 239.645 93.0846 239.205 92.7112C238.833 92.2747 238.644 91.7393 238.644 91.1138V64.832C238.644 61.3268 238.115 58.5731 237.052 56.5708C235.993 54.5685 234.621 53.1602 232.934 52.3458C231.252 51.5313 229.471 51.1264 227.6 51.1264C225.977 51.1264 224.326 51.5313 222.639 52.3458C220.957 53.1602 219.553 54.5685 218.427 56.5708C217.368 58.5731 216.835 61.2954 216.835 64.7375V91.1138C216.835 91.7393 216.615 92.2702 216.18 92.7112C215.807 93.0846 215.305 93.2736 214.681 93.2736H210.191H210.196ZM311.13 94.214C306.389 94.214 302.428 93.3051 299.248 91.4918C296.067 89.6785 293.631 87.1722 291.949 83.9821C290.267 80.7289 289.329 77.0348 289.141 72.9042C289.078 71.8423 289.047 70.4969 289.047 68.8681C289.047 67.2393 289.078 65.8354 289.141 64.832C289.329 60.6384 290.262 56.9488 291.949 53.7541C293.699 50.5639 296.161 48.0577 299.342 46.2444C302.522 44.4311 306.452 43.5222 311.13 43.5222C315.809 43.5222 319.739 44.4311 322.919 46.2444C326.1 48.0577 328.535 50.5639 330.217 53.7541C331.967 56.9443 332.931 60.6384 333.12 64.832C333.183 65.8354 333.214 67.1808 333.214 68.8681C333.214 70.5554 333.183 71.8423 333.12 72.9042C332.931 77.0348 331.998 80.7244 330.312 83.9821C328.63 87.1722 326.194 89.6785 323.013 91.4918C319.833 93.3051 315.872 94.214 311.13 94.214ZM311.13 86.9878C315.002 86.9878 318.088 85.7684 320.394 83.3251C322.704 80.8234 323.951 77.1922 324.135 72.4362C324.198 71.4958 324.229 70.3079 324.229 68.8681C324.229 67.4282 324.198 66.2404 324.135 65.2999C323.946 60.5439 322.699 56.9443 320.394 54.5055C318.088 52.0038 314.997 50.7529 311.13 50.7529C307.264 50.7529 304.146 52.0038 301.773 54.5055C299.467 56.9443 298.252 60.5439 298.122 65.2999C298.059 66.2404 298.027 67.4282 298.027 68.8681C298.027 70.3079 298.059 71.4958 298.122 72.4362C298.247 77.1922 299.463 80.8234 301.773 83.3251C304.146 85.7639 307.264 86.9878 311.13 86.9878ZM347.089 93.2736C346.465 93.2736 345.936 93.0846 345.496 92.7112C345.124 92.2747 344.935 91.7393 344.935 91.1138V46.7168C344.935 46.0914 345.124 45.5604 345.496 45.1195C345.936 44.683 346.461 44.4626 347.089 44.4626H351.395C352.018 44.4626 352.548 44.683 352.987 45.1195C353.427 45.5559 353.642 46.0914 353.642 46.7168V50.8474C354.889 48.7191 356.607 47.1263 358.788 46.0599C360.972 44.998 363.592 44.4626 366.647 44.4626H370.388C371.011 44.4626 371.509 44.683 371.886 45.1195C372.258 45.493 372.447 45.9969 372.447 46.6223V50.4694C372.447 51.0949 372.258 51.5943 371.886 51.9723C371.514 52.3458 371.011 52.5347 370.388 52.5347H364.772C361.403 52.5347 358.752 53.5381 356.818 55.5404C354.885 57.4797 353.916 60.139 353.916 63.5181V91.1138C353.916 91.7393 353.696 92.2702 353.261 92.7112C352.821 93.0846 352.297 93.2736 351.669 93.2736H347.084H347.089ZM399.478 93.2736C395.984 93.2736 393.149 92.6167 390.964 91.3028C388.78 89.926 387.192 88.0182 386.191 85.5794C385.195 83.0777 384.693 80.1349 384.693 76.7558V51.9768H377.395C376.771 51.9768 376.242 51.7878 375.802 51.4144C375.43 50.9779 375.241 50.4425 375.241 49.817V46.6268C375.241 46.0014 375.43 45.502 375.802 45.124C376.242 44.6875 376.771 44.4671 377.395 44.4671H384.693V28.7906C384.693 28.1652 384.881 27.6658 385.254 27.2878C385.693 26.8513 386.223 26.6309 386.846 26.6309H391.242C391.866 26.6309 392.364 26.8513 392.74 27.2878C393.18 27.6613 393.395 28.1652 393.395 28.7906V44.4671H405C405.624 44.4671 406.122 44.6875 406.498 45.124C406.938 45.4975 407.153 46.0014 407.153 46.6268V49.817C407.153 50.4425 406.934 50.9734 406.498 51.4144C406.126 51.7878 405.624 51.9768 405 51.9768H393.395V76.0989C393.395 79.0416 393.898 81.3543 394.894 83.0462C395.894 84.7335 397.67 85.5794 400.227 85.5794H405.938C406.561 85.5794 407.059 85.7999 407.436 86.2363C407.876 86.6098 408.091 87.1137 408.091 87.7392V91.1183C408.091 91.7438 407.871 92.2747 407.436 92.7157C407.064 93.0891 406.561 93.2781 405.938 93.2781H399.483L399.478 93.2736ZM419.189 93.2736C418.565 93.2736 418.036 93.0846 417.596 92.7112C417.224 92.2747 417.036 91.7393 417.036 91.1138V46.7168C417.036 46.0914 417.224 45.5604 417.596 45.1195C418.036 44.683 418.565 44.4626 419.189 44.4626H423.495C424.119 44.4626 424.652 44.683 425.088 45.1195C425.527 45.5559 425.742 46.0914 425.742 46.7168V50.8474C426.99 48.7191 428.708 47.1263 430.888 46.0599C433.072 44.998 435.692 44.4626 438.747 44.4626H442.488C443.112 44.4626 443.609 44.683 443.986 45.1195C444.359 45.493 444.547 45.9969 444.547 46.6223V50.4694C444.547 51.0949 444.359 51.5943 443.986 51.9723C443.614 52.3503 443.112 52.5347 442.488 52.5347H436.872C433.503 52.5347 430.852 53.5381 428.918 55.5404C426.985 57.4797 426.016 60.139 426.016 63.5181V91.1138C426.016 91.7393 425.801 92.2702 425.361 92.7112C424.926 93.0846 424.397 93.2736 423.769 93.2736H419.184H419.189ZM471.04 94.214C464.612 94.214 459.498 92.2432 455.694 88.3016C451.886 84.297 449.8 78.8526 449.423 71.9683C449.36 71.1539 449.329 70.1235 449.329 68.8726C449.329 67.5587 449.36 66.4968 449.423 65.6824C449.674 61.2414 450.701 57.3583 452.509 54.0421C454.317 50.6629 456.784 48.0667 459.902 46.2534C463.082 44.4401 466.796 43.5312 471.036 43.5312C475.777 43.5312 479.738 44.5346 482.918 46.5368C486.162 48.5391 488.624 51.3874 490.311 55.077C491.993 58.7711 492.837 63.0862 492.837 68.0312V69.6285C492.837 70.3169 492.617 70.8479 492.182 71.2259C491.809 71.5993 491.307 71.7883 490.683 71.7883H458.305V72.6342C458.431 75.1989 458.991 77.6107 459.987 79.8605C460.987 82.0518 462.418 83.8336 464.293 85.2104C466.164 86.5873 468.411 87.2757 471.031 87.2757C473.278 87.2757 475.149 86.9293 476.647 86.2453C478.146 85.5569 479.361 84.8055 480.299 83.9911C481.236 83.1136 481.86 82.4567 482.169 82.0203C482.73 81.2058 483.17 80.7379 483.479 80.6119C483.789 80.4229 484.291 80.3284 484.977 80.3284H489.468C490.091 80.3284 490.589 80.5174 490.966 80.8909C491.406 81.2058 491.59 81.6738 491.527 82.2992C491.464 83.2396 490.966 84.396 490.028 85.7729C489.091 87.0867 487.754 88.4006 486.005 89.7145C484.255 91.0283 482.138 92.1217 479.639 92.9992C477.145 93.8136 474.274 94.2185 471.031 94.2185L471.04 94.214ZM458.314 65.3044H483.955V65.021C483.955 62.2043 483.425 59.7025 482.362 57.5112C481.362 55.32 479.9 53.6011 477.966 52.3503C476.033 51.0364 473.723 50.3795 471.04 50.3795C468.358 50.3795 466.052 51.0364 464.114 52.3503C462.243 53.6011 460.808 55.3245 459.808 57.5112C458.807 59.7025 458.309 62.2043 458.309 65.021V65.3044H458.314ZM523.403 94.214C516.975 94.214 511.861 92.2432 508.057 88.3016C504.248 84.297 502.163 78.8526 501.786 71.9683C501.723 71.1539 501.692 70.1235 501.692 68.8726C501.692 67.5587 501.723 66.4968 501.786 65.6824C502.032 61.2414 503.064 57.3583 504.872 54.0421C506.68 50.6629 509.142 48.0667 512.265 46.2534C515.445 44.4401 519.155 43.5312 523.398 43.5312C528.14 43.5312 532.101 44.5346 535.281 46.5368C538.524 48.5391 540.992 51.3874 542.674 55.077C544.356 58.7711 545.199 63.0862 545.199 68.0312V69.6285C545.199 70.3169 544.979 70.8479 544.544 71.2259C544.172 71.5993 543.67 71.7883 543.046 71.7883H510.668V72.6342C510.793 75.1989 511.354 77.6107 512.35 79.8605C513.346 82.0518 514.781 83.8336 516.656 85.2104C518.527 86.5873 520.774 87.2757 523.394 87.2757C525.641 87.2757 527.512 86.9293 529.01 86.2453C530.508 85.5569 531.724 84.8055 532.661 83.9911C533.599 83.1136 534.218 82.4567 534.532 82.0203C535.093 81.2058 535.528 80.7379 535.842 80.6119C536.151 80.4229 536.649 80.3284 537.34 80.3284H541.83C542.454 80.3284 542.952 80.5174 543.329 80.8909C543.764 81.2058 543.952 81.6738 543.889 82.2992C543.827 83.2396 543.329 84.396 542.391 85.7729C541.454 87.0867 540.112 88.4006 538.367 89.7145C536.618 91.0283 534.496 92.1217 532.002 92.9992C529.508 93.8136 526.637 94.2185 523.394 94.2185L523.403 94.214ZM510.677 65.3044H536.317V65.021C536.317 62.2043 535.788 59.7025 534.725 57.5112C533.725 55.32 532.258 53.6011 530.329 52.3503C528.395 51.0364 526.085 50.3795 523.403 50.3795C520.72 50.3795 518.41 51.0364 516.477 52.3503C514.606 53.6011 513.171 55.3245 512.17 57.5112C511.17 59.7025 510.672 62.2043 510.672 65.021V65.3044H510.677Z" fill="#F3F6F9"/>
</svg>
