<svg width="1920" height="685" viewBox="0 0 1920 685" fill="none" xmlns="http://www.w3.org/2000/svg">
<mask id="mask0_1138_1148" style="mask-type:alpha" maskUnits="userSpaceOnUse" x="0" y="0" width="1920" height="685">
<rect width="1920" height="685" fill="url(#paint0_linear_1138_1148)"/>
</mask>
<g mask="url(#mask0_1138_1148)">
<mask id="mask1_1138_1148" style="mask-type:alpha" maskUnits="userSpaceOnUse" x="0" y="0" width="1920" height="685">
<rect width="1920" height="685" fill="url(#paint1_linear_1138_1148)"/>
</mask>
<g mask="url(#mask1_1138_1148)">
<g style="mix-blend-mode:multiply">
<path d="M1920 0H0V1008.01H1920V0Z" stroke="#D1BBE9" stroke-opacity="0.5"/>
<path d="M1809.04 58.2578H110.963V949.758H1809.04V58.2578Z" stroke="#D1BBE9" stroke-opacity="0.5"/>
<path d="M1708.64 110.964H211.359V897.047H1708.64V110.964Z" stroke="#D1BBE9" stroke-opacity="0.5"/>
<path d="M1618.81 158.125H301.186V849.888H1618.81V158.125Z" stroke="#D1BBE9" stroke-opacity="0.5"/>
<path d="M1539.55 199.737H380.445V808.276H1539.55V199.737Z" stroke="#D1BBE9" stroke-opacity="0.5"/>
<path d="M1470.86 235.8H449.137V772.212H1470.86V235.8Z" stroke="#D1BBE9" stroke-opacity="0.5"/>
<path d="M1412.74 266.315H507.262V741.697H1412.74V266.315Z" stroke="#D1BBE9" stroke-opacity="0.5"/>
<path d="M1365.18 291.282H554.817V716.73H1365.18V291.282Z" stroke="#D1BBE9" stroke-opacity="0.5"/>
<path d="M1328.2 310.7H591.806V697.31H1328.2V310.7Z" stroke="#D1BBE9" stroke-opacity="0.5"/>
<path d="M1301.78 324.573H618.226V683.442H1301.78V324.573Z" stroke="#D1BBE9" stroke-opacity="0.5"/>
<path d="M1280.64 335.67H639.36V672.346H1280.64V335.67Z" stroke="#D1BBE9" stroke-opacity="0.5"/>
<path d="M639.359 672.345L-0.00038859 1008.01" stroke="#D1BBE9" stroke-opacity="0.5"/>
<path d="M685.166 672.345L175.294 1008.01" stroke="#D1BBE9" stroke-opacity="0.5"/>
<path d="M730.971 672.345L329.234 1008.01" stroke="#D1BBE9" stroke-opacity="0.5"/>
<path d="M776.777 672.345L468.878 1008.01" stroke="#D1BBE9" stroke-opacity="0.5"/>
<path d="M822.582 672.345L598.86 1008.01" stroke="#D1BBE9" stroke-opacity="0.5"/>
<path d="M868.389 672.345L722.459 1008.01" stroke="#D1BBE9" stroke-opacity="0.5"/>
<path d="M914.194 672.345L842.155 1008.01" stroke="#D1BBE9" stroke-opacity="0.5"/>
<path d="M960 672.345V1008.01" stroke="#D1BBE9" stroke-opacity="0.5"/>
<path d="M1005.81 672.345L1077.84 1008.01" stroke="#D1BBE9" stroke-opacity="0.5"/>
<path d="M1051.61 672.345L1197.54 1008.01" stroke="#D1BBE9" stroke-opacity="0.5"/>
<path d="M1097.42 672.345L1321.14 1008.01" stroke="#D1BBE9" stroke-opacity="0.5"/>
<path d="M1143.22 672.345L1451.12 1008.01" stroke="#D1BBE9" stroke-opacity="0.5"/>
<path d="M1189.03 672.345L1590.76 1008.01" stroke="#D1BBE9" stroke-opacity="0.5"/>
<path d="M1234.83 672.345L1744.71 1008.01" stroke="#D1BBE9" stroke-opacity="0.5"/>
<path d="M1280.64 672.345L1920 1008.01" stroke="#D1BBE9" stroke-opacity="0.5"/>
<path d="M639.36 335.668L0.000674056 0.000160778" stroke="#D1BBE9" stroke-opacity="0.5"/>
<path d="M639.36 359.718L0.00102143 92.0319" stroke="#D1BBE9" stroke-opacity="0.5"/>
<path d="M639.36 383.765L0.00155027 172.851" stroke="#D1BBE9" stroke-opacity="0.5"/>
<path d="M639.36 407.813L0.000977918 246.164" stroke="#D1BBE9" stroke-opacity="0.5"/>
<path d="M639.36 431.862L0.000749775 314.406" stroke="#D1BBE9" stroke-opacity="0.5"/>
<path d="M639.36 455.911L0.000578356 379.297" stroke="#D1BBE9" stroke-opacity="0.5"/>
<path d="M639.36 479.957L0.000405946 442.137" stroke="#D1BBE9" stroke-opacity="0.5"/>
<path d="M639.36 504.007H0.000484943" stroke="#D1BBE9" stroke-opacity="0.5"/>
<path d="M639.36 528.056L0.000405946 565.877" stroke="#D1BBE9" stroke-opacity="0.5"/>
<path d="M639.36 552.103L0.000578356 628.717" stroke="#D1BBE9" stroke-opacity="0.5"/>
<path d="M639.36 576.152L0.000749775 693.607" stroke="#D1BBE9" stroke-opacity="0.5"/>
<path d="M639.36 600.199L0.000977918 761.849" stroke="#D1BBE9" stroke-opacity="0.5"/>
<path d="M639.36 624.248L0.00142549 835.162" stroke="#D1BBE9" stroke-opacity="0.5"/>
<path d="M639.36 648.296L0.000891962 915.982" stroke="#D1BBE9" stroke-opacity="0.5"/>
<path d="M1280.64 335.667L1920 -0.00068666" stroke="#D1BBE9" stroke-opacity="0.5"/>
<path d="M1234.83 335.667L1744.71 -0.000661941" stroke="#D1BBE9" stroke-opacity="0.5"/>
<path d="M1189.03 335.667L1590.77 -0.000604934" stroke="#D1BBE9" stroke-opacity="0.5"/>
<path d="M1143.22 335.667L1451.12 -0.000597957" stroke="#D1BBE9" stroke-opacity="0.5"/>
<path d="M1097.42 335.667L1321.14 -0.000538623" stroke="#D1BBE9" stroke-opacity="0.5"/>
<path d="M1051.61 335.667L1197.54 -0.000524389" stroke="#D1BBE9" stroke-opacity="0.5"/>
<path d="M1005.8 335.667L1077.84 -0.000508257" stroke="#D1BBE9" stroke-opacity="0.5"/>
<path d="M960 335.667L960 -0.000494599" stroke="#D1BBE9" stroke-opacity="0.5"/>
<path d="M914.193 335.667L842.154 -0.000508257" stroke="#D1BBE9" stroke-opacity="0.5"/>
<path d="M868.388 335.668L722.459 -3.61077e-05" stroke="#D1BBE9" stroke-opacity="0.5"/>
<path d="M822.582 335.668L598.86 -5.03417e-05" stroke="#D1BBE9" stroke-opacity="0.5"/>
<path d="M776.777 335.668L468.878 -0.000109675" stroke="#D1BBE9" stroke-opacity="0.5"/>
<path d="M730.97 335.668L329.234 -0.000116653" stroke="#D1BBE9" stroke-opacity="0.5"/>
<path d="M685.166 335.668L175.293 -0.00017366" stroke="#D1BBE9" stroke-opacity="0.5"/>
<path d="M1280.64 648.294L1920 915.98" stroke="#D1BBE9" stroke-opacity="0.5"/>
<path d="M1280.64 624.247L1920 835.161" stroke="#D1BBE9" stroke-opacity="0.5"/>
<path d="M1280.64 600.2L1920 761.849" stroke="#D1BBE9" stroke-opacity="0.5"/>
<path d="M1280.64 576.151L1920 693.607" stroke="#D1BBE9" stroke-opacity="0.5"/>
<path d="M1280.64 552.103L1920 628.717" stroke="#D1BBE9" stroke-opacity="0.5"/>
<path d="M1280.64 528.055L1920 565.876" stroke="#D1BBE9" stroke-opacity="0.5"/>
<path d="M1280.64 504.007L1920 504.007" stroke="#D1BBE9" stroke-opacity="0.5"/>
<path d="M1280.64 479.957L1920 442.136" stroke="#D1BBE9" stroke-opacity="0.5"/>
<path d="M1280.64 455.91L1920 379.296" stroke="#D1BBE9" stroke-opacity="0.5"/>
<path d="M1280.64 431.861L1920 314.406" stroke="#D1BBE9" stroke-opacity="0.5"/>
<path d="M1280.64 407.813L1920 246.164" stroke="#D1BBE9" stroke-opacity="0.5"/>
<path d="M1280.64 383.765L1920 172.851" stroke="#D1BBE9" stroke-opacity="0.5"/>
<path d="M1280.64 359.717L1920 92.0304" stroke="#D1BBE9" stroke-opacity="0.5"/>
</g>
</g>
</g>
<defs>
<linearGradient id="paint0_linear_1138_1148" x1="1920" y1="342.5" x2="0" y2="342.5" gradientUnits="userSpaceOnUse">
<stop stop-color="white" stop-opacity="0"/>
<stop offset="0.1" stop-color="white"/>
<stop offset="0.5" stop-color="white"/>
<stop offset="0.9" stop-color="white"/>
<stop offset="1" stop-color="white" stop-opacity="0"/>
</linearGradient>
<linearGradient id="paint1_linear_1138_1148" x1="960" y1="0" x2="960" y2="685" gradientUnits="userSpaceOnUse">
<stop stop-color="#F8F2FF"/>
<stop offset="1" stop-color="#F8F2FF" stop-opacity="0"/>
</linearGradient>
</defs>
</svg>
