<svg width="20" height="20" viewBox="0 0 20 20" fill="none" xmlns="http://www.w3.org/2000/svg">
<path d="M2.5 20C1.8125 20 1.22396 19.7552 0.734375 19.2656C0.244792 18.776 0 18.1875 0 17.5C0 16.8125 0.244792 16.224 0.734375 15.7344C1.22396 15.2448 1.8125 15 2.5 15C3.1875 15 3.77604 15.2448 4.26562 15.7344C4.75521 16.224 5 16.8125 5 17.5C5 18.1875 4.75521 18.776 4.26562 19.2656C3.77604 19.7552 3.1875 20 2.5 20ZM10 20C9.3125 20 8.72396 19.7552 8.23438 19.2656C7.74479 18.776 7.5 18.1875 7.5 17.5C7.5 16.8125 7.74479 16.224 8.23438 15.7344C8.72396 15.2448 9.3125 15 10 15C10.6875 15 11.276 15.2448 11.7656 15.7344C12.2552 16.224 12.5 16.8125 12.5 17.5C12.5 18.1875 12.2552 18.776 11.7656 19.2656C11.276 19.7552 10.6875 20 10 20ZM17.5 20C16.8125 20 16.224 19.7552 15.7344 19.2656C15.2448 18.776 15 18.1875 15 17.5C15 16.8125 15.2448 16.224 15.7344 15.7344C16.224 15.2448 16.8125 15 17.5 15C18.1875 15 18.776 15.2448 19.2656 15.7344C19.7552 16.224 20 16.8125 20 17.5C20 18.1875 19.7552 18.776 19.2656 19.2656C18.776 19.7552 18.1875 20 17.5 20ZM2.5 12.5C1.8125 12.5 1.22396 12.2552 0.734375 11.7656C0.244792 11.276 0 10.6875 0 10C0 9.3125 0.244792 8.72396 0.734375 8.23438C1.22396 7.74479 1.8125 7.5 2.5 7.5C3.1875 7.5 3.77604 7.74479 4.26562 8.23438C4.75521 8.72396 5 9.3125 5 10C5 10.6875 4.75521 11.276 4.26562 11.7656C3.77604 12.2552 3.1875 12.5 2.5 12.5ZM10 12.5C9.3125 12.5 8.72396 12.2552 8.23438 11.7656C7.74479 11.276 7.5 10.6875 7.5 10C7.5 9.3125 7.74479 8.72396 8.23438 8.23438C8.72396 7.74479 9.3125 7.5 10 7.5C10.6875 7.5 11.276 7.74479 11.7656 8.23438C12.2552 8.72396 12.5 9.3125 12.5 10C12.5 10.6875 12.2552 11.276 11.7656 11.7656C11.276 12.2552 10.6875 12.5 10 12.5ZM17.5 12.5C16.8125 12.5 16.224 12.2552 15.7344 11.7656C15.2448 11.276 15 10.6875 15 10C15 9.3125 15.2448 8.72396 15.7344 8.23438C16.224 7.74479 16.8125 7.5 17.5 7.5C18.1875 7.5 18.776 7.74479 19.2656 8.23438C19.7552 8.72396 20 9.3125 20 10C20 10.6875 19.7552 11.276 19.2656 11.7656C18.776 12.2552 18.1875 12.5 17.5 12.5ZM2.5 5C1.8125 5 1.22396 4.75521 0.734375 4.26562C0.244792 3.77604 0 3.1875 0 2.5C0 1.8125 0.244792 1.22396 0.734375 0.734375C1.22396 0.244792 1.8125 0 2.5 0C3.1875 0 3.77604 0.244792 4.26562 0.734375C4.75521 1.22396 5 1.8125 5 2.5C5 3.1875 4.75521 3.77604 4.26562 4.26562C3.77604 4.75521 3.1875 5 2.5 5ZM10 5C9.3125 5 8.72396 4.75521 8.23438 4.26562C7.74479 3.77604 7.5 3.1875 7.5 2.5C7.5 1.8125 7.74479 1.22396 8.23438 0.734375C8.72396 0.244792 9.3125 0 10 0C10.6875 0 11.276 0.244792 11.7656 0.734375C12.2552 1.22396 12.5 1.8125 12.5 2.5C12.5 3.1875 12.2552 3.77604 11.7656 4.26562C11.276 4.75521 10.6875 5 10 5ZM17.5 5C16.8125 5 16.224 4.75521 15.7344 4.26562C15.2448 3.77604 15 3.1875 15 2.5C15 1.8125 15.2448 1.22396 15.7344 0.734375C16.224 0.244792 16.8125 0 17.5 0C18.1875 0 18.776 0.244792 19.2656 0.734375C19.7552 1.22396 20 1.8125 20 2.5C20 3.1875 19.7552 3.77604 19.2656 4.26562C18.776 4.75521 18.1875 5 17.5 5Z" fill="#5F6368"/>
</svg>
