<svg width="85" height="105" viewBox="0 0 85 105" fill="none" xmlns="http://www.w3.org/2000/svg">
<path fill-rule="evenodd" clip-rule="evenodd" d="M24.8825 69.3757L29.317 73.8103L33.9362 78.4294C31.8425 79.1757 23.2418 78.8487 17.9126 76.8633C11.2533 74.6378 0.589592 65.1594 0.480284 53.1446C0.374111 41.4744 5.06007 36.9105 11.5776 30.5628C12.4699 29.6938 13.3965 28.7913 14.3499 27.8326C22.2668 19.8711 42.1707 0.0800781 42.1707 0.0800781L54.2121 11.7194L45.5218 20.3375L42.4654 17.3831L18.0291 41.7594C7.46545 52.323 19.8167 64.3099 19.8167 64.3099C19.5169 64.0201 24.8825 69.3757 24.8825 69.3757ZM57.1681 32.0194L55.6832 30.5345L51.064 25.9154C53.1577 25.1691 61.7583 25.4961 67.0876 27.4815C73.7469 29.707 84.4106 39.1854 84.5199 51.2002C84.6261 62.8704 79.9401 67.4343 73.4226 73.782C72.5303 74.651 71.6036 75.5535 70.6503 76.5122C62.7334 84.4737 42.8294 104.265 42.8294 104.265L30.7881 92.6254L39.4783 84.0073L42.5348 86.9617L66.9711 62.5854C77.5347 52.0218 65.1835 40.0349 65.1835 40.0349C65.337 40.1833 64.0054 38.8518 62.6692 37.5169L53.5567 46.6294C55.9274 51.2632 55.1732 57.0836 51.2943 60.9625C46.4793 65.7776 38.6726 65.7776 33.8576 60.9625C29.0425 56.1475 29.0425 48.3408 33.8576 43.5257C37.6871 39.6962 43.409 38.9124 48.0131 41.1744L57.1681 32.0194Z" fill="#0DDAFF"/>
</svg>
