<svg width="257" height="185" viewBox="0 0 257 185" fill="none" xmlns="http://www.w3.org/2000/svg">
<path d="M2.95075 179.322V165.455H4.63002V171.63H12.0242V165.455H13.7035V179.322H12.0242V173.12H4.63002V179.322H2.95075ZM22.9807 179.539C22.0418 179.539 21.218 179.315 20.5092 178.869C19.805 178.422 19.2543 177.796 18.8571 176.993C18.4643 176.189 18.268 175.25 18.268 174.176C18.268 173.093 18.4643 172.147 18.8571 171.339C19.2543 170.531 19.805 169.903 20.5092 169.457C21.218 169.01 22.0418 168.786 22.9807 168.786C23.9197 168.786 24.7413 169.01 25.4455 169.457C26.1542 169.903 26.7049 170.531 27.0977 171.339C27.4949 172.147 27.6935 173.093 27.6935 174.176C27.6935 175.25 27.4949 176.189 27.0977 176.993C26.7049 177.796 26.1542 178.422 25.4455 178.869C24.7413 179.315 23.9197 179.539 22.9807 179.539ZM22.9807 178.103C23.694 178.103 24.2808 177.921 24.7413 177.555C25.2017 177.189 25.5425 176.709 25.7637 176.113C25.9849 175.517 26.0955 174.871 26.0955 174.176C26.0955 173.481 25.9849 172.833 25.7637 172.233C25.5425 171.632 25.2017 171.147 24.7413 170.777C24.2808 170.407 23.694 170.222 22.9807 170.222C22.2675 170.222 21.6807 170.407 21.2202 170.777C20.7598 171.147 20.419 171.632 20.1978 172.233C19.9766 172.833 19.866 173.481 19.866 174.176C19.866 174.871 19.9766 175.517 20.1978 176.113C20.419 176.709 20.7598 177.189 21.2202 177.555C21.6807 177.921 22.2675 178.103 22.9807 178.103ZM38.5942 175.07V168.922H40.1922V179.322H38.5942V177.562H38.4859C38.2421 178.09 37.8629 178.539 37.3483 178.909C36.8337 179.275 36.1836 179.458 35.3982 179.458C34.7481 179.458 34.1703 179.315 33.6647 179.031C33.1591 178.742 32.7619 178.309 32.473 177.731C32.1841 177.149 32.0396 176.415 32.0396 175.53V168.922H33.6376V175.422C33.6376 176.18 33.8498 176.785 34.2741 177.237C34.703 177.688 35.2492 177.914 35.9128 177.914C36.31 177.914 36.714 177.812 37.1248 177.609C37.5401 177.406 37.8877 177.095 38.1676 176.675C38.452 176.255 38.5942 175.72 38.5942 175.07ZM52.393 171.251L50.9575 171.657C50.8672 171.418 50.734 171.185 50.5579 170.96C50.3864 170.73 50.1517 170.54 49.8537 170.391C49.5558 170.242 49.1744 170.168 48.7094 170.168C48.0729 170.168 47.5425 170.314 47.1182 170.608C46.6983 170.897 46.4884 171.264 46.4884 171.711C46.4884 172.109 46.6329 172.422 46.9218 172.653C47.2107 172.883 47.6621 173.075 48.276 173.228L49.8199 173.607C50.7498 173.833 51.4427 174.178 51.8987 174.643C52.3546 175.104 52.5825 175.697 52.5825 176.424C52.5825 177.02 52.411 177.553 52.0679 178.022C51.7294 178.492 51.2554 178.862 50.646 179.133C50.0366 179.404 49.3278 179.539 48.5198 179.539C47.459 179.539 46.581 179.309 45.8858 178.848C45.1906 178.388 44.7505 177.715 44.5654 176.83L46.0822 176.451C46.2266 177.011 46.4997 177.431 46.9015 177.711C47.3078 177.991 47.8382 178.131 48.4927 178.131C49.2376 178.131 49.8289 177.973 50.2668 177.657C50.7092 177.336 50.9304 176.952 50.9304 176.505C50.9304 176.144 50.804 175.842 50.5512 175.598C50.2984 175.35 49.9102 175.165 49.3865 175.043L47.6531 174.637C46.7006 174.411 46.0009 174.061 45.554 173.587C45.1116 173.109 44.8904 172.51 44.8904 171.793C44.8904 171.206 45.0552 170.687 45.3847 170.235C45.7188 169.784 46.1724 169.429 46.7457 169.172C47.3236 168.915 47.9781 168.786 48.7094 168.786C49.7386 168.786 50.5467 169.012 51.1335 169.463C51.7249 169.915 52.1447 170.511 52.393 171.251ZM56.8948 179.322V168.922H58.4928V179.322H56.8948ZM57.7074 167.188C57.3959 167.188 57.1273 167.082 56.9016 166.87C56.6804 166.658 56.5698 166.403 56.5698 166.105C56.5698 165.807 56.6804 165.552 56.9016 165.34C57.1273 165.128 57.3959 165.021 57.7074 165.021C58.0188 165.021 58.2852 165.128 58.5064 165.34C58.7321 165.552 58.8449 165.807 58.8449 166.105C58.8449 166.403 58.7321 166.658 58.5064 166.87C58.2852 167.082 58.0188 167.188 57.7074 167.188ZM64.9245 173.066V179.322H63.3265V168.922H64.8703V170.547H65.0057C65.2495 170.019 65.6197 169.594 66.1162 169.274C66.6128 168.949 67.2538 168.786 68.0392 168.786C68.7435 168.786 69.3596 168.931 69.8878 169.22C70.4159 169.504 70.8267 169.937 71.1202 170.52C71.4136 171.097 71.5603 171.829 71.5603 172.714V179.322H69.9623V172.822C69.9623 172.005 69.7501 171.368 69.3258 170.912C68.9014 170.452 68.3191 170.222 67.5788 170.222C67.0687 170.222 66.6128 170.332 66.211 170.554C65.8138 170.775 65.5 171.097 65.2698 171.522C65.0396 171.946 64.9245 172.461 64.9245 173.066ZM80.5853 183.439C79.8134 183.439 79.1498 183.34 78.5946 183.141C78.0393 182.947 77.5766 182.69 77.2065 182.369C76.8408 182.053 76.5497 181.715 76.333 181.354L77.606 180.46C77.7504 180.649 77.9333 180.866 78.1545 181.11C78.3756 181.358 78.6781 181.573 79.0618 181.753C79.45 181.938 79.9579 182.031 80.5853 182.031C81.425 182.031 82.1179 181.828 82.6641 181.421C83.2103 181.015 83.4834 180.379 83.4834 179.512V177.399H83.348C83.2306 177.589 83.0636 177.824 82.8469 178.103C82.6348 178.379 82.3278 178.625 81.926 178.842C81.5288 179.054 80.9916 179.16 80.3145 179.16C79.4748 179.16 78.721 178.961 78.0529 178.564C77.3893 178.167 76.8634 177.589 76.4752 176.83C76.0915 176.072 75.8996 175.151 75.8996 174.068C75.8996 173.002 76.087 172.075 76.4616 171.285C76.8363 170.49 77.3577 169.876 78.0258 169.443C78.6939 169.005 79.4658 168.786 80.3416 168.786C81.0187 168.786 81.5559 168.899 81.9531 169.125C82.3549 169.346 82.6618 169.599 82.874 169.883C83.0907 170.163 83.2577 170.393 83.3751 170.574H83.5376V168.922H85.0814V179.62C85.0814 180.514 84.8783 181.241 84.472 181.801C84.0703 182.365 83.5286 182.778 82.8469 183.04C82.1698 183.306 81.4159 183.439 80.5853 183.439ZM80.5312 177.724C81.1722 177.724 81.7139 177.578 82.1563 177.284C82.5986 176.991 82.9349 176.569 83.1652 176.018C83.3954 175.467 83.5105 174.808 83.5105 174.041C83.5105 173.291 83.3976 172.63 83.1719 172.057C82.9462 171.483 82.6122 171.034 82.1698 170.709C81.7274 170.384 81.1812 170.222 80.5312 170.222C79.854 170.222 79.2898 170.393 78.8383 170.736C78.3914 171.079 78.0551 171.54 77.8294 172.118C77.6082 172.695 77.4976 173.336 77.4976 174.041C77.4976 174.763 77.6105 175.402 77.8362 175.957C78.0664 176.508 78.405 176.941 78.8519 177.257C79.3033 177.569 79.8631 177.724 80.5312 177.724Z" fill="#28223B"/>
<path d="M115.873 165.254L118.013 171.842H124.94L119.336 175.914L121.477 182.501L115.873 178.43L110.269 182.501L112.409 175.914L106.805 171.842H113.732L115.873 165.254Z" fill="#0476BA"/>
<path d="M146.154 179.322V165.455H150.84C151.927 165.455 152.817 165.651 153.507 166.044C154.203 166.432 154.717 166.958 155.051 167.622C155.385 168.285 155.552 169.025 155.552 169.843C155.552 170.66 155.385 171.402 155.051 172.07C154.722 172.738 154.212 173.271 153.521 173.668C152.83 174.061 151.946 174.257 150.867 174.257H147.508V172.768H150.812C151.557 172.768 152.155 172.639 152.607 172.382C153.058 172.124 153.386 171.777 153.589 171.339C153.796 170.897 153.9 170.398 153.9 169.843C153.9 169.287 153.796 168.791 153.589 168.353C153.386 167.915 153.056 167.572 152.6 167.324C152.144 167.071 151.539 166.944 150.785 166.944H147.833V179.322H146.154ZM159.948 179.322V168.922H161.491V170.493H161.6C161.789 169.978 162.132 169.56 162.629 169.24C163.126 168.919 163.685 168.759 164.308 168.759C164.426 168.759 164.572 168.761 164.748 168.766C164.924 168.77 165.058 168.777 165.148 168.786V170.411C165.094 170.398 164.97 170.377 164.775 170.35C164.586 170.319 164.385 170.303 164.173 170.303C163.667 170.303 163.216 170.409 162.819 170.621C162.426 170.829 162.114 171.118 161.884 171.488C161.658 171.854 161.546 172.271 161.546 172.741V179.322H159.948ZM172.858 179.539C171.919 179.539 171.095 179.315 170.386 178.869C169.682 178.422 169.131 177.796 168.734 176.993C168.341 176.189 168.145 175.25 168.145 174.176C168.145 173.093 168.341 172.147 168.734 171.339C169.131 170.531 169.682 169.903 170.386 169.457C171.095 169.01 171.919 168.786 172.858 168.786C173.797 168.786 174.618 169.01 175.322 169.457C176.031 169.903 176.582 170.531 176.975 171.339C177.372 172.147 177.57 173.093 177.57 174.176C177.57 175.25 177.372 176.189 176.975 176.993C176.582 177.796 176.031 178.422 175.322 178.869C174.618 179.315 173.797 179.539 172.858 179.539ZM172.858 178.103C173.571 178.103 174.158 177.921 174.618 177.555C175.079 177.189 175.419 176.709 175.641 176.113C175.862 175.517 175.972 174.871 175.972 174.176C175.972 173.481 175.862 172.833 175.641 172.233C175.419 171.632 175.079 171.147 174.618 170.777C174.158 170.407 173.571 170.222 172.858 170.222C172.144 170.222 171.558 170.407 171.097 170.777C170.637 171.147 170.296 171.632 170.075 172.233C169.853 172.833 169.743 173.481 169.743 174.176C169.743 174.871 169.853 175.517 170.075 176.113C170.296 176.709 170.637 177.189 171.097 177.555C171.558 177.921 172.144 178.103 172.858 178.103ZM181.916 183.222V168.922H183.46V170.574H183.65C183.767 170.393 183.93 170.163 184.137 169.883C184.35 169.599 184.652 169.346 185.045 169.125C185.442 168.899 185.979 168.786 186.656 168.786C187.532 168.786 188.304 169.005 188.972 169.443C189.64 169.881 190.162 170.502 190.536 171.305C190.911 172.109 191.098 173.057 191.098 174.149C191.098 175.25 190.911 176.205 190.536 177.013C190.162 177.817 189.642 178.44 188.979 178.882C188.315 179.32 187.55 179.539 186.683 179.539C186.015 179.539 185.48 179.428 185.079 179.207C184.677 178.981 184.368 178.726 184.151 178.442C183.934 178.153 183.767 177.914 183.65 177.724H183.515V183.222H181.916ZM183.487 174.122C183.487 174.907 183.603 175.6 183.833 176.201C184.063 176.797 184.399 177.264 184.842 177.602C185.284 177.936 185.826 178.103 186.467 178.103C187.135 178.103 187.692 177.927 188.139 177.575C188.591 177.219 188.929 176.74 189.155 176.14C189.385 175.535 189.5 174.862 189.5 174.122C189.5 173.391 189.387 172.732 189.162 172.145C188.941 171.553 188.604 171.086 188.153 170.743C187.706 170.396 187.144 170.222 186.467 170.222C185.817 170.222 185.271 170.386 184.828 170.716C184.386 171.041 184.052 171.497 183.826 172.084C183.6 172.666 183.487 173.346 183.487 174.122ZM199.803 179.539C198.801 179.539 197.937 179.318 197.21 178.875C196.488 178.428 195.93 177.806 195.538 177.007C195.149 176.203 194.955 175.269 194.955 174.203C194.955 173.138 195.149 172.199 195.538 171.386C195.93 170.569 196.476 169.933 197.176 169.477C197.88 169.016 198.702 168.786 199.641 168.786C200.183 168.786 200.718 168.877 201.246 169.057C201.774 169.238 202.255 169.531 202.688 169.937C203.121 170.339 203.467 170.872 203.724 171.535C203.981 172.199 204.11 173.016 204.11 173.987V174.664H196.093V173.282H202.485C202.485 172.695 202.367 172.172 202.133 171.711C201.902 171.251 201.573 170.888 201.144 170.621C200.72 170.355 200.219 170.222 199.641 170.222C199.004 170.222 198.454 170.38 197.989 170.696C197.528 171.007 197.174 171.413 196.926 171.915C196.677 172.416 196.553 172.953 196.553 173.526V174.447C196.553 175.232 196.689 175.898 196.959 176.444C197.235 176.986 197.616 177.399 198.104 177.684C198.591 177.964 199.158 178.103 199.803 178.103C200.223 178.103 200.602 178.045 200.941 177.927C201.284 177.806 201.58 177.625 201.828 177.386C202.076 177.142 202.268 176.839 202.404 176.478L203.947 176.912C203.785 177.435 203.512 177.896 203.128 178.293C202.744 178.686 202.27 178.993 201.706 179.214C201.142 179.431 200.508 179.539 199.803 179.539ZM208.448 179.322V168.922H209.991V170.493H210.1C210.289 169.978 210.632 169.56 211.129 169.24C211.626 168.919 212.185 168.759 212.808 168.759C212.926 168.759 213.072 168.761 213.248 168.766C213.424 168.77 213.558 168.777 213.648 168.786V170.411C213.594 170.398 213.47 170.377 213.275 170.35C213.086 170.319 212.885 170.303 212.673 170.303C212.167 170.303 211.716 170.409 211.319 170.621C210.926 170.829 210.614 171.118 210.384 171.488C210.158 171.854 210.046 172.271 210.046 172.741V179.322H208.448ZM222.624 168.922V170.276H217.234V168.922H222.624ZM218.805 166.43H220.403V176.343C220.403 176.794 220.468 177.133 220.599 177.359C220.735 177.58 220.906 177.729 221.114 177.806C221.326 177.878 221.549 177.914 221.784 177.914C221.96 177.914 222.105 177.905 222.218 177.887C222.33 177.864 222.421 177.846 222.488 177.833L222.813 179.268C222.705 179.309 222.554 179.349 222.36 179.39C222.166 179.435 221.92 179.458 221.622 179.458C221.17 179.458 220.728 179.361 220.294 179.167C219.866 178.972 219.509 178.677 219.225 178.279C218.945 177.882 218.805 177.381 218.805 176.776V166.43ZM226.934 179.322V168.922H228.532V179.322H226.934ZM227.747 167.188C227.435 167.188 227.167 167.082 226.941 166.87C226.72 166.658 226.609 166.403 226.609 166.105C226.609 165.807 226.72 165.552 226.941 165.34C227.167 165.128 227.435 165.021 227.747 165.021C228.058 165.021 228.325 165.128 228.546 165.34C228.772 165.552 228.884 165.807 228.884 166.105C228.884 166.403 228.772 166.658 228.546 166.87C228.325 167.082 228.058 167.188 227.747 167.188ZM237.727 179.539C236.725 179.539 235.86 179.318 235.133 178.875C234.411 178.428 233.854 177.806 233.461 177.007C233.073 176.203 232.878 175.269 232.878 174.203C232.878 173.138 233.073 172.199 233.461 171.386C233.854 170.569 234.4 169.933 235.099 169.477C235.804 169.016 236.625 168.786 237.564 168.786C238.106 168.786 238.641 168.877 239.169 169.057C239.697 169.238 240.178 169.531 240.611 169.937C241.045 170.339 241.39 170.872 241.647 171.535C241.905 172.199 242.033 173.016 242.033 173.987V174.664H234.016V173.282H240.408C240.408 172.695 240.291 172.172 240.056 171.711C239.826 171.251 239.496 170.888 239.067 170.621C238.643 170.355 238.142 170.222 237.564 170.222C236.928 170.222 236.377 170.38 235.912 170.696C235.452 171.007 235.097 171.413 234.849 171.915C234.601 172.416 234.477 172.953 234.477 173.526V174.447C234.477 175.232 234.612 175.898 234.883 176.444C235.158 176.986 235.54 177.399 236.027 177.684C236.515 177.964 237.081 178.103 237.727 178.103C238.147 178.103 238.526 178.045 238.864 177.927C239.207 177.806 239.503 177.625 239.751 177.386C240 177.142 240.191 176.839 240.327 176.478L241.871 176.912C241.708 177.435 241.435 177.896 241.051 178.293C240.668 178.686 240.194 178.993 239.629 179.214C239.065 179.431 238.431 179.539 237.727 179.539ZM253.738 171.251L252.302 171.657C252.212 171.418 252.079 171.185 251.903 170.96C251.731 170.73 251.497 170.54 251.199 170.391C250.901 170.242 250.519 170.168 250.054 170.168C249.418 170.168 248.888 170.314 248.463 170.608C248.043 170.897 247.833 171.264 247.833 171.711C247.833 172.109 247.978 172.422 248.267 172.653C248.556 172.883 249.007 173.075 249.621 173.228L251.165 173.607C252.095 173.833 252.788 174.178 253.244 174.643C253.7 175.104 253.928 175.697 253.928 176.424C253.928 177.02 253.756 177.553 253.413 178.022C253.074 178.492 252.6 178.862 251.991 179.133C251.382 179.404 250.673 179.539 249.865 179.539C248.804 179.539 247.926 179.309 247.231 178.848C246.536 178.388 246.095 177.715 245.91 176.83L247.427 176.451C247.572 177.011 247.845 177.431 248.246 177.711C248.653 177.991 249.183 178.131 249.838 178.131C250.583 178.131 251.174 177.973 251.612 177.657C252.054 177.336 252.275 176.952 252.275 176.505C252.275 176.144 252.149 175.842 251.896 175.598C251.643 175.35 251.255 175.165 250.732 175.043L248.998 174.637C248.046 174.411 247.346 174.061 246.899 173.587C246.457 173.109 246.235 172.51 246.235 171.793C246.235 171.206 246.4 170.687 246.73 170.235C247.064 169.784 247.517 169.429 248.091 169.172C248.669 168.915 249.323 168.786 250.054 168.786C251.084 168.786 251.892 169.012 252.479 169.463C253.07 169.915 253.49 170.511 253.738 171.251Z" fill="#28223B"/>
<path d="M20.3656 126.336C20.2392 125.061 19.6968 124.071 18.7383 123.366C17.7798 122.66 16.4789 122.307 14.8358 122.307C13.7193 122.307 12.7766 122.465 12.0077 122.781C11.2387 123.086 10.6489 123.513 10.2381 124.061C9.83785 124.608 9.63772 125.23 9.63772 125.925C9.61666 126.504 9.73779 127.01 10.0011 127.442C10.275 127.874 10.6489 128.248 11.1229 128.564C11.5969 128.869 12.1446 129.138 12.766 129.369C13.3875 129.591 14.0511 129.78 14.7568 129.938L17.6639 130.633C19.0753 130.949 20.3709 131.371 21.5506 131.897C22.7303 132.424 23.752 133.072 24.6157 133.841C25.4794 134.61 26.1483 135.515 26.6222 136.558C27.1068 137.601 27.3543 138.796 27.3648 140.145C27.3543 142.125 26.8487 143.842 25.8481 145.295C24.858 146.738 23.4255 147.86 21.5506 148.661C19.6862 149.451 17.4374 149.846 14.8042 149.846C12.192 149.846 9.91685 149.445 7.97877 148.645C6.05123 147.844 4.545 146.659 3.4601 145.09C2.38573 143.51 1.82221 141.556 1.76955 139.228H8.38956C8.46329 140.313 8.77402 141.219 9.32173 141.946C9.87998 142.662 10.6226 143.205 11.5495 143.573C12.4869 143.931 13.5455 144.11 14.7252 144.11C15.8838 144.11 16.8897 143.942 17.7429 143.605C18.6066 143.268 19.2754 142.799 19.7494 142.199C20.2234 141.598 20.4604 140.908 20.4604 140.129C20.4604 139.402 20.2445 138.791 19.8126 138.296C19.3913 137.801 18.7699 137.38 17.9483 137.032C17.1372 136.685 16.1419 136.369 14.9622 136.084L11.4389 135.199C8.71082 134.536 6.55681 133.498 4.97686 132.087C3.3969 130.676 2.61219 128.774 2.62273 126.383C2.61219 124.424 3.13358 122.713 4.18688 121.248C5.25072 119.784 6.70954 118.642 8.56336 117.82C10.4172 116.998 12.5238 116.588 14.8832 116.588C17.2847 116.588 19.3808 116.998 21.1714 117.82C22.9725 118.642 24.3734 119.784 25.3741 121.248C26.3747 122.713 26.8908 124.408 26.9224 126.336H20.3656ZM34.191 149.387V117.03H46.957C49.4112 117.03 51.5021 117.499 53.2295 118.436C54.9569 119.363 56.2735 120.653 57.1794 122.307C58.0957 123.95 58.5539 125.846 58.5539 127.995C58.5539 130.144 58.0905 132.04 57.1636 133.683C56.2367 135.326 54.8937 136.606 53.1347 137.522C51.3862 138.438 49.269 138.897 46.7833 138.897H38.6465V133.414H45.6773C46.9939 133.414 48.0788 133.188 48.932 132.735C49.7957 132.271 50.4382 131.634 50.8595 130.823C51.2914 130.001 51.5073 129.059 51.5073 127.995C51.5073 126.92 51.2914 125.983 50.8595 125.183C50.4382 124.371 49.7957 123.745 48.932 123.302C48.0683 122.849 46.9728 122.623 45.6457 122.623H41.0322V149.387H34.191ZM65.2221 149.387V117.03H77.9881C80.4318 117.03 82.5174 117.467 84.2448 118.341C85.9827 119.205 87.3046 120.432 88.2105 122.023C89.1268 123.603 89.585 125.462 89.585 127.6C89.585 129.749 89.1216 131.597 88.1947 133.146C87.2678 134.683 85.9248 135.863 84.1658 136.685C82.4173 137.506 80.3001 137.917 77.8144 137.917H69.2668V132.419H76.7084C78.0145 132.419 79.0994 132.24 79.9631 131.882C80.8268 131.523 81.4693 130.986 81.8906 130.27C82.3225 129.554 82.5384 128.664 82.5384 127.6C82.5384 126.526 82.3225 125.62 81.8906 124.882C81.4693 124.145 80.8215 123.587 79.9473 123.208C79.0836 122.818 77.9934 122.623 76.6768 122.623H72.0633V149.387H65.2221ZM82.6964 134.662L90.7384 149.387H83.1862L75.318 134.662H82.6964ZM109.166 149.387V117.03H130.97V122.67H116.007V130.381H129.848V136.021H116.007V143.747H131.033V149.387H109.166ZM158.699 132.04L152.537 132.419C152.431 131.892 152.205 131.418 151.857 130.997C151.51 130.565 151.052 130.223 150.483 129.97C149.925 129.706 149.256 129.575 148.476 129.575C147.433 129.575 146.554 129.796 145.838 130.238C145.121 130.67 144.763 131.25 144.763 131.976C144.763 132.556 144.995 133.045 145.459 133.446C145.922 133.846 146.717 134.167 147.844 134.409L152.237 135.294C154.596 135.779 156.355 136.558 157.514 137.633C158.672 138.707 159.252 140.118 159.252 141.867C159.252 143.457 158.783 144.853 157.845 146.054C156.918 147.255 155.644 148.192 154.022 148.866C152.41 149.53 150.551 149.861 148.445 149.861C145.232 149.861 142.673 149.193 140.766 147.855C138.87 146.507 137.759 144.674 137.432 142.357L144.052 142.009C144.253 142.989 144.737 143.736 145.506 144.253C146.275 144.758 147.26 145.011 148.46 145.011C149.64 145.011 150.588 144.785 151.304 144.332C152.031 143.868 152.4 143.273 152.41 142.546C152.4 141.935 152.142 141.435 151.636 141.045C151.131 140.645 150.351 140.34 149.298 140.129L145.095 139.292C142.725 138.818 140.961 137.996 139.802 136.827C138.654 135.658 138.08 134.167 138.08 132.356C138.08 130.797 138.501 129.454 139.344 128.327C140.197 127.2 141.393 126.331 142.931 125.72C144.479 125.109 146.291 124.803 148.366 124.803C151.431 124.803 153.843 125.451 155.602 126.747C157.371 128.042 158.404 129.807 158.699 132.04ZM178.623 125.119V130.175H164.008V125.119H178.623ZM167.326 119.305H174.057V141.93C174.057 142.552 174.151 143.036 174.341 143.384C174.53 143.721 174.794 143.958 175.131 144.095C175.478 144.232 175.879 144.3 176.332 144.3C176.648 144.3 176.964 144.274 177.28 144.221C177.596 144.158 177.838 144.11 178.006 144.079L179.065 149.087C178.728 149.193 178.254 149.314 177.643 149.451C177.032 149.598 176.29 149.688 175.415 149.719C173.793 149.782 172.371 149.567 171.149 149.071C169.938 148.576 168.995 147.807 168.321 146.765C167.647 145.722 167.315 144.405 167.326 142.815V119.305ZM192.152 149.846C190.603 149.846 189.224 149.577 188.012 149.04C186.801 148.492 185.842 147.686 185.137 146.623C184.442 145.548 184.094 144.21 184.094 142.609C184.094 141.261 184.341 140.129 184.837 139.213C185.332 138.296 186.006 137.559 186.859 137.001C187.712 136.442 188.681 136.021 189.766 135.737C190.861 135.452 192.01 135.252 193.21 135.136C194.622 134.989 195.759 134.852 196.623 134.725C197.487 134.589 198.113 134.388 198.503 134.125C198.893 133.862 199.088 133.472 199.088 132.956V132.861C199.088 131.86 198.772 131.086 198.14 130.539C197.518 129.991 196.634 129.717 195.485 129.717C194.274 129.717 193.31 129.986 192.594 130.523C191.878 131.049 191.404 131.713 191.172 132.514L184.947 132.008C185.263 130.533 185.885 129.259 186.811 128.184C187.738 127.1 188.934 126.267 190.398 125.688C191.873 125.098 193.579 124.803 195.517 124.803C196.865 124.803 198.156 124.961 199.388 125.277C200.631 125.593 201.732 126.083 202.69 126.747C203.659 127.41 204.423 128.263 204.981 129.306C205.539 130.338 205.818 131.576 205.818 133.019V149.387H199.435V146.022H199.246C198.856 146.781 198.335 147.449 197.682 148.029C197.029 148.597 196.244 149.045 195.327 149.372C194.411 149.688 193.352 149.846 192.152 149.846ZM194.079 145.201C195.069 145.201 195.944 145.006 196.702 144.616C197.46 144.216 198.055 143.679 198.487 143.004C198.919 142.33 199.135 141.567 199.135 140.713V138.138C198.924 138.275 198.635 138.401 198.266 138.517C197.908 138.623 197.503 138.723 197.05 138.818C196.597 138.902 196.144 138.981 195.691 139.055C195.238 139.118 194.827 139.176 194.458 139.228C193.668 139.344 192.979 139.529 192.389 139.781C191.799 140.034 191.341 140.376 191.014 140.808C190.688 141.23 190.524 141.756 190.524 142.388C190.524 143.305 190.856 144.005 191.52 144.49C192.194 144.964 193.047 145.201 194.079 145.201ZM226.173 125.119V130.175H211.558V125.119H226.173ZM214.876 119.305H221.607V141.93C221.607 142.552 221.702 143.036 221.891 143.384C222.081 143.721 222.344 143.958 222.681 144.095C223.029 144.232 223.429 144.3 223.882 144.3C224.198 144.3 224.514 144.274 224.83 144.221C225.146 144.158 225.388 144.11 225.557 144.079L226.615 149.087C226.278 149.193 225.804 149.314 225.193 149.451C224.582 149.598 223.84 149.688 222.966 149.719C221.344 149.782 219.922 149.567 218.7 149.071C217.488 148.576 216.546 147.807 215.872 146.765C215.197 145.722 214.866 144.405 214.876 142.815V119.305ZM243.581 149.861C241.085 149.861 238.936 149.356 237.135 148.345C235.344 147.323 233.964 145.88 232.995 144.016C232.026 142.141 231.542 139.924 231.542 137.364C231.542 134.868 232.026 132.677 232.995 130.791C233.964 128.906 235.328 127.437 237.087 126.383C238.857 125.33 240.932 124.803 243.312 124.803C244.913 124.803 246.404 125.061 247.784 125.578C249.174 126.083 250.385 126.847 251.417 127.868C252.46 128.89 253.271 130.175 253.851 131.724C254.43 133.261 254.72 135.063 254.72 137.127V138.976H234.228V134.804H248.384C248.384 133.835 248.173 132.977 247.752 132.229C247.331 131.481 246.746 130.897 245.998 130.475C245.261 130.044 244.402 129.828 243.423 129.828C242.401 129.828 241.495 130.065 240.705 130.539C239.926 131.002 239.315 131.629 238.873 132.419C238.43 133.198 238.204 134.067 238.193 135.026V138.991C238.193 140.192 238.414 141.23 238.857 142.104C239.31 142.978 239.947 143.652 240.769 144.126C241.59 144.6 242.564 144.837 243.691 144.837C244.439 144.837 245.124 144.732 245.745 144.521C246.367 144.311 246.899 143.995 247.341 143.573C247.784 143.152 248.121 142.636 248.352 142.025L254.577 142.436C254.261 143.931 253.614 145.237 252.634 146.354C251.665 147.46 250.412 148.324 248.874 148.945C247.346 149.556 245.582 149.861 243.581 149.861Z" fill="#28223B"/>
<path d="M40.7391 103.913H0L124.686 0H161.722L256.78 103.913L155.549 9.89649L74.0711 80.4089V103.913H40.7391Z" fill="url(#paint0_linear_1225_1252)"/>
<rect x="133.328" y="45.7715" width="19.7523" height="19.793" rx="2.54237" fill="#0476BA"/>
<rect x="133.328" y="71.7495" width="19.7523" height="19.793" rx="2.54237" fill="#0476BA"/>
<rect x="159.253" y="45.7715" width="19.7523" height="19.793" rx="2.54237" fill="#0476BA"/>
<rect x="159.253" y="71.7495" width="19.7523" height="19.793" rx="2.54237" fill="#0476BA"/>
<line y1="158.31" x2="256.78" y2="158.31" stroke="#0476BA" stroke-width="2.54237"/>
<defs>
<linearGradient id="paint0_linear_1225_1252" x1="127.773" y1="0" x2="127.773" y2="185.559" gradientUnits="userSpaceOnUse">
<stop stop-color="#1877BB"/>
<stop offset="0.484137" stop-color="#28223B"/>
</linearGradient>
</defs>
</svg>
