<svg width="198" height="211" viewBox="0 0 198 211" fill="none" xmlns="http://www.w3.org/2000/svg">
<path d="M120.18 196.222L126.319 196.293V196.256V196.219H120.18V196.222ZM120.18 203.227L122.924 208.724L123.084 208.644L123.239 208.555L120.177 203.227H120.18ZM176.241 170.941L179.303 176.268H179.309L176.241 170.941ZM176.241 45.9803L173.17 51.3016L176.238 45.9803H176.241ZM114.532 10.2918L117.603 4.97055L114.535 10.2918H114.532ZM83.6374 10.2918L86.7052 15.6131L86.7145 15.6069L83.6374 10.2887V10.2918ZM21.8881 170.941L18.8202 176.265L18.8665 176.29L18.9128 176.315L21.8881 170.941ZM80.0356 203.227L77.0603 208.601C78.9615 209.658 81.2794 209.627 83.1528 208.521C85.0263 207.417 86.1775 205.403 86.1775 203.224H80.0387L80.0356 203.227ZM114.041 182.291V196.222H126.319V182.291H114.041ZM120.18 196.222L114.041 196.151V196.157C114.041 196.157 114.041 196.166 114.041 196.172C114.041 196.185 114.041 196.206 114.041 196.231C114.041 196.283 114.041 196.361 114.041 196.456C114.041 196.651 114.035 196.929 114.032 197.26C114.026 197.924 114.017 198.811 114.014 199.701C114.007 200.585 114.004 201.49 114.01 202.183C114.01 202.519 114.017 202.853 114.023 203.116C114.026 203.23 114.032 203.428 114.051 203.635C114.057 203.697 114.075 203.981 114.14 204.327C114.156 204.411 114.254 204.992 114.548 205.668C114.652 205.912 115.097 206.945 116.156 207.865C116.757 208.388 117.745 209.037 119.115 209.278C120.56 209.531 121.89 209.241 122.924 208.721L117.433 197.727C118.47 197.207 119.797 196.917 121.242 197.17C122.612 197.411 123.6 198.057 124.202 198.583C124.788 199.092 125.159 199.608 125.362 199.93C125.578 200.27 125.72 200.57 125.807 200.77C125.976 201.166 126.069 201.493 126.112 201.654C126.162 201.84 126.192 201.991 126.208 202.087C126.267 202.405 126.285 202.652 126.285 202.668C126.294 202.776 126.294 202.825 126.291 202.751C126.288 202.64 126.285 202.427 126.282 202.108C126.279 201.49 126.282 200.644 126.285 199.769C126.291 198.901 126.297 198.029 126.304 197.374C126.307 197.047 126.31 196.775 126.313 196.583C126.313 196.487 126.313 196.413 126.313 196.364C126.313 196.339 126.313 196.321 126.313 196.305C126.313 196.299 126.313 196.293 126.313 196.29C126.313 196.29 126.313 196.287 120.174 196.212L120.18 196.222ZM123.239 208.555L179.3 176.268L173.18 165.613L117.118 197.9L123.239 208.555ZM179.309 176.265C190.781 169.637 197.849 157.409 197.849 144.146H185.571C185.571 153.009 180.852 161.182 173.173 165.617L179.309 176.262V176.265ZM197.849 144.146V72.7721H185.571V144.146H197.849ZM197.849 72.7752C197.849 59.5122 190.781 47.2844 179.309 40.6559L173.173 51.3016C180.852 55.736 185.571 63.9126 185.571 72.7721H197.849V72.7752ZM179.312 40.6559L117.603 4.97055L111.464 15.6131L173.173 51.2985L179.312 40.6559ZM117.6 4.97055C106.131 -1.65479 92.0015 -1.66097 80.5602 4.97673L86.7145 15.6131C94.341 11.188 103.785 11.1818 111.464 15.6193L117.6 4.97364V4.97055ZM80.5695 4.97055L18.8171 40.6559L24.9528 51.3016L86.7022 15.6162L80.5633 4.97055H80.5695ZM18.8202 40.6559C7.3481 47.2813 0.280273 59.5122 0.280273 72.7752H12.5579C12.5579 63.9126 17.277 55.7391 24.9559 51.3047L18.8202 40.659V40.6559ZM0.280273 72.7752V144.149H12.5579V72.7752H0.280273ZM0.280273 144.146C0.280273 157.409 7.3481 169.637 18.8202 176.265L24.9559 165.62C17.277 161.185 12.5579 153.012 12.5579 144.149H0.280273V144.146ZM18.9097 176.318L77.0603 208.604L83.0139 197.853L24.8633 165.567L18.9097 176.318ZM86.1744 203.227V196.222H73.8967V203.227H86.1744ZM86.1744 196.222V182.291H73.8967V196.222H86.1744Z" fill="white"/>
<path fill-rule="evenodd" clip-rule="evenodd" d="M140.64 118.247C142.843 119.354 145.331 119.975 147.964 119.975C149.689 119.975 151.356 119.706 152.917 119.211V159.847L151.121 161.646L126.319 186.478V192.127H114.041V181.389L115.838 179.59L140.64 154.758V118.25V118.247Z" fill="white"/>
<path d="M162.384 101.579C162.384 93.6587 155.97 87.2373 148.06 87.2373C140.149 87.2373 133.736 93.6587 133.736 101.579C133.736 109.499 140.149 115.92 148.06 115.92C155.97 115.92 162.384 109.499 162.384 101.579Z" fill="#E4C535"/>
<path fill-rule="evenodd" clip-rule="evenodd" d="M93.8994 51.9414C95.6833 52.6088 97.6123 52.9735 99.6278 52.9735C101.955 52.9735 104.171 52.4852 106.177 51.6107V104.394H93.8994V51.9445V51.9414ZM93.8994 104.391H106.177V116.684L93.8994 104.391Z" fill="white"/>
<path d="M113.387 33.7988C113.387 25.8787 106.973 19.4573 99.0629 19.4573C91.1525 19.4573 84.739 25.8787 84.739 33.7988C84.739 41.7189 91.1525 48.1403 99.0629 48.1403C106.973 48.1403 113.387 41.7189 113.387 33.7988Z" fill="#5CB04D"/>
<path d="M85.6559 66.1684C85.6559 58.2483 79.2424 51.8269 71.332 51.8269C63.4216 51.8269 57.0081 58.2483 57.0081 66.1684C57.0081 74.0885 63.4216 80.5099 71.332 80.5099C79.2424 80.5099 85.6559 74.0885 85.6559 66.1684Z" fill="#43658C"/>
<path fill-rule="evenodd" clip-rule="evenodd" d="M128.09 87.6051C123.689 87.6051 119.696 85.8653 116.754 83.0378V144.461L106.072 155.886V133.726L104.415 131.955L82.7731 108.804L83.0694 80.371C80.233 82.738 76.5818 84.1626 72.6003 84.1626C71.9769 84.1626 71.3596 84.1286 70.7547 84.0606L70.4707 111.14L70.446 113.606L72.1281 115.404L93.7976 138.584V204.856C93.7976 208.249 96.5445 211.002 99.9365 211.002C103.328 211.002 106.075 208.252 106.075 204.856V173.874L127.374 151.09L129.032 149.319V87.5773C128.72 87.5958 128.405 87.6051 128.09 87.6051Z" fill="white"/>
<path d="M142.738 69.1599C142.738 61.2397 136.325 54.8184 128.414 54.8184C120.504 54.8184 114.091 61.2397 114.091 69.1599C114.091 77.08 120.504 83.5014 128.414 83.5014C136.325 83.5014 142.738 77.08 142.738 69.1599Z" fill="#DB3C2D"/>
<path fill-rule="evenodd" clip-rule="evenodd" d="M50.1624 127.462C51.0265 127.604 51.9154 127.678 52.8228 127.678C56.4154 127.678 59.7394 126.52 62.44 124.554V136.337L84.4953 159.674L86.1743 161.451V182.786H73.8967V166.346L51.8413 143.009L50.1624 141.232V127.465V127.462Z" fill="white"/>
<path d="M65.9709 109.394C65.9709 101.474 59.5574 95.0525 51.647 95.0525C43.7366 95.0525 37.3262 101.474 37.3262 109.394C37.3262 117.314 43.7397 123.736 51.647 123.736C59.5543 123.736 65.9709 117.314 65.9709 109.394Z" fill="#CCCCCC"/>
</svg>
