<svg width="50" height="50" viewBox="0 0 50 50" fill="none" xmlns="http://www.w3.org/2000/svg">
<path d="M16.7596 1.39012C22.823 -0.715875 29.4685 -0.418928 35.3182 2.21824C41.1679 4.85545 45.7736 9.63099 48.1796 15.5552C50.5854 21.4793 50.6073 28.0977 48.2411 34.0376C45.8747 39.9774 41.3014 44.7836 35.4696 47.4595C29.6377 50.1352 22.8369 50.8788 16.7596 48.813L17.4999 43.2163C22.2605 44.8345 28.6326 44.6619 33.201 42.5659C37.7694 40.4698 41.3522 36.7052 43.2059 32.0522C45.0596 27.3991 45.0418 22.2144 43.1571 17.5737C41.2724 12.9331 37.6651 9.19229 33.0829 7.12644C28.5005 5.0606 23.2946 4.82824 18.5448 6.47801C13.7952 8.12778 9.86555 11.5326 7.57115 15.9868C5.27684 20.4411 4.79373 25.6035 6.22154 30.4028C6.97122 32.9227 7.80758 35.2979 9.06334 37.3471L13.1249 13.6802H19.6874L17.1874 26.7388C17 28.0006 16.7503 30.0031 19.9999 30.5005C23.2495 30.9979 24.1664 28.1898 24.3749 26.7388L27.0419 13.6802H32.9999L29.4999 30.4692H32.1874L30.9999 35.5005C26.9376 36.4331 25.9373 35.1327 24.9999 33.8891C22.8123 36.3762 16.8749 36.3762 15.3124 33.8891L13.7499 41.9731L12.4999 46.9477C6.9319 43.7636 2.85097 38.0588 1.02818 31.9321C-0.794478 25.8055 -0.177911 19.216 2.75084 13.5298C5.67978 7.84347 10.6963 3.49617 16.7596 1.39012ZM36.2499 13.6802C37.6306 13.6802 38.7499 14.7938 38.7499 16.1675C38.7499 17.5411 37.6306 18.6548 36.2499 18.6548C34.8692 18.6547 33.7499 17.5411 33.7499 16.1675C33.7499 14.7939 34.8692 13.6803 36.2499 13.6802Z" fill="#3B589F"/>
</svg>
